<svg width="9448.8193" height="3779.5276" viewBox="0 0 4000 1600" xmlns="http://www.w3.org/2000/svg">
  <defs>
    <clipPath clipPathUnits="userSpaceOnUse" id="a">
      <path d="M0 0h2850v1800H0Z"/>
    </clipPath>
    <clipPath clipPathUnits="userSpaceOnUse" id="c">
      <path d="M0 1800h2850V0H0Z"/>
    </clipPath>
    <clipPath clipPathUnits="userSpaceOnUse" id="d">
      <path d="M136.754 1745.99H2716.4V568.865H136.754Z"/>
    </clipPath>
    <clipPath clipPathUnits="userSpaceOnUse" id="e">
      <path d="M0 1800h2850V0H0Z"/>
    </clipPath>
    <clipPath clipPathUnits="userSpaceOnUse" id="f">
      <path d="M156.045 1684H2791.86v-574.53H156.045Z"/>
    </clipPath>
    <clipPath clipPathUnits="userSpaceOnUse" id="g">
      <path d="M156.045 1398.62h817.448v-267.47H156.045Z"/>
    </clipPath>
    <clipPath clipPathUnits="userSpaceOnUse" id="h">
      <path d="M2400.03 1652.29h391.83v-128.21h-391.83z"/>
    </clipPath>
    <clipPath clipPathUnits="userSpaceOnUse" id="i">
      <path d="M770.608 1684h594.472v-191.63H770.608Z"/>
    </clipPath>
    <clipPath clipPathUnits="userSpaceOnUse" id="j">
      <path d="M2057.91 1336.17h654.36v-226.7h-654.36z"/>
    </clipPath>
    <clipPath clipPathUnits="userSpaceOnUse" id="k">
      <path d="M1603.11 1502.6h474.9v-153.15h-474.9z"/>
    </clipPath>
    <linearGradient x1="0" y1="0" x2="1" y2="0" gradientUnits="userSpaceOnUse" gradientTransform="matrix(0 -538.73628 -339.58886 0 826.53865 1811.4251)" spreadMethod="pad" id="b">
      <stop style="stop-opacity:1;stop-color:#8732b3" offset="0"/>
      <stop style="stop-opacity:1;stop-color:#8732b3" offset=".00510538"/>
      <stop style="stop-opacity:1;stop-color:#ff9696" offset=".94576175"/>
      <stop style="stop-opacity:1;stop-color:#ff9696" offset="1"/>
    </linearGradient>
  </defs>
  <g clip-path="url(#a)" style="stroke-width:0.506356" transform="matrix(1.40403 0 0 -.88502 -2.9659747 1597.9731)">
    <g style="stroke-width:0.506356">
      <path d="M0 0h2850v1800H0Z" style="fill:url(#b);stroke:none;stroke-width:0.506356"/>
    </g>
  </g>
  <g style="stroke-width:0.506992">
    <path d="M0 0v1.152" style="fill:none;stroke:#ffffff;stroke-width:1.50071;stroke-linecap:round;stroke-linejoin:round;stroke-miterlimit:10;stroke-dasharray:none;stroke-opacity:1" transform="matrix(1.4005 0 0 -.88502 3418.3511 54.691263)"/>
  </g>
  <g clip-path="url(#c)" style="stroke-width:0.506992" transform="matrix(1.4005 0 0 -.88502 28.015931 1602.7014)">
    <g style="stroke-width:0.506992">
      <path d="M0 0c-.365-.384-.73-.768-1.097-1.152" style="fill:none;stroke:#ffffff;stroke-width:1.50071;stroke-linecap:round;stroke-linejoin:round;stroke-miterlimit:10;stroke-dasharray:none;stroke-opacity:1" transform="translate(2360.5146 1623.4927)"/>
    </g>
    <g style="stroke-width:0.506992">
      <path d="M0 0h-1.096" style="fill:none;stroke:#ffffff;stroke-width:1.50071;stroke-linecap:round;stroke-linejoin:round;stroke-miterlimit:10;stroke-dasharray:none;stroke-opacity:1" transform="translate(2213.6533 1707.6338)"/>
    </g>
    <g style="stroke-width:0.506992">
      <path d="M0 0v1.153" style="fill:none;stroke:#ffffff;stroke-width:1.50071;stroke-linecap:round;stroke-linejoin:round;stroke-miterlimit:10;stroke-dasharray:none;stroke-opacity:1" transform="translate(2256.3965 1590.0669)"/>
    </g>
    <g style="stroke-width:0.506992">
      <path d="M0 0c-.094-.563 1.027-.521.896.034" style="fill:none;stroke:#ffffff;stroke-width:1.50071;stroke-linecap:round;stroke-linejoin:round;stroke-miterlimit:10;stroke-dasharray:none;stroke-opacity:1" transform="translate(2332.2119 1467.8545)"/>
    </g>
    <g style="stroke-width:0.506992">
      <path d="M0 0v-1.153" style="fill:none;stroke:#ffffff;stroke-width:1.50071;stroke-linecap:round;stroke-linejoin:round;stroke-miterlimit:10;stroke-dasharray:none;stroke-opacity:1" transform="translate(2186.2539 1507.0791)"/>
    </g>
    <g style="stroke-width:0.506992">
      <path d="m0 0 1.096 1.153" style="fill:none;stroke:#ffffff;stroke-width:1.50071;stroke-linecap:round;stroke-linejoin:round;stroke-miterlimit:10;stroke-dasharray:none;stroke-opacity:1" transform="translate(2259.6846 1316.8975)"/>
    </g>
    <g style="stroke-width:0.506992">
      <path d="M0 0v1.153" style="fill:none;stroke:#ffffff;stroke-width:1.50071;stroke-linecap:round;stroke-linejoin:round;stroke-miterlimit:10;stroke-dasharray:none;stroke-opacity:1" transform="translate(2576.4219 1482.874)"/>
    </g>
    <g style="stroke-width:0.506992">
      <path d="M0 0c.365.384.73.769 1.096 1.152" style="fill:none;stroke:#ffffff;stroke-width:1.50071;stroke-linecap:round;stroke-linejoin:round;stroke-miterlimit:10;stroke-dasharray:none;stroke-opacity:1" transform="translate(2780.2734 1455.2114)"/>
    </g>
    <g style="stroke-width:0.506992">
      <path d="M0 0v-1.153" style="fill:none;stroke:#ffffff;stroke-width:1.50071;stroke-linecap:round;stroke-linejoin:round;stroke-miterlimit:10;stroke-dasharray:none;stroke-opacity:1" transform="translate(2719.9941 1547.4204)"/>
    </g>
    <g style="stroke-width:0.506992">
      <path d="M0 0v1.153" style="fill:none;stroke:#ffffff;stroke-width:1.50071;stroke-linecap:round;stroke-linejoin:round;stroke-miterlimit:10;stroke-dasharray:none;stroke-opacity:1" transform="translate(2769.3135 1696.1074)"/>
    </g>
    <g style="stroke-width:0.506992">
      <path d="M0 0c.365.769.73 1.537 1.096 2.305" style="fill:none;stroke:#ffffff;stroke-width:1.50071;stroke-linecap:round;stroke-linejoin:round;stroke-miterlimit:10;stroke-dasharray:none;stroke-opacity:1" transform="translate(2801.0967 1729.5332)"/>
    </g>
    <g style="stroke-width:0.506992">
      <path d="M0 0v1.153" style="fill:none;stroke:#ffffff;stroke-width:1.50071;stroke-linecap:round;stroke-linejoin:round;stroke-miterlimit:10;stroke-dasharray:none;stroke-opacity:1" transform="translate(2829.5918 1685.7339)"/>
    </g>
    <g style="stroke-width:0.506992">
      <path d="M0 0h-1.096" style="fill:none;stroke:#ffffff;stroke-width:1.50071;stroke-linecap:round;stroke-linejoin:round;stroke-miterlimit:10;stroke-dasharray:none;stroke-opacity:1" transform="translate(2672.8672 1707.6338)"/>
    </g>
    <g style="stroke-width:0.506992">
      <path d="M0 0v2.042" style="fill:none;stroke:#ffffff;stroke-width:1.50071;stroke-linecap:round;stroke-linejoin:round;stroke-miterlimit:10;stroke-dasharray:none;stroke-opacity:1" transform="translate(2702.9707 1415.0513)"/>
    </g>
    <g style="stroke-width:0.506992">
      <path d="M0 0v2.042" style="fill:none;stroke:#ffffff;stroke-width:1.50071;stroke-linecap:round;stroke-linejoin:round;stroke-miterlimit:10;stroke-dasharray:none;stroke-opacity:1" transform="translate(2629.1895 1219.0249)"/>
    </g>
    <g style="stroke-width:0.506992">
      <path d="M0 0h-1.941" style="fill:none;stroke:#ffffff;stroke-width:1.50071;stroke-linecap:round;stroke-linejoin:round;stroke-miterlimit:10;stroke-dasharray:none;stroke-opacity:1" transform="translate(2563.1748 859.6436)"/>
    </g>
    <g style="stroke-width:0.506992">
      <path d="M0 0h1.941" style="fill:none;stroke:#ffffff;stroke-width:1.50071;stroke-linecap:round;stroke-linejoin:round;stroke-miterlimit:10;stroke-dasharray:none;stroke-opacity:1" transform="translate(2403.9639 806.5527)"/>
    </g>
    <g style="stroke-width:0.506992">
      <path d="M0 0h3.883" style="fill:none;stroke:#ffffff;stroke-width:1.50071;stroke-linecap:round;stroke-linejoin:round;stroke-miterlimit:10;stroke-dasharray:none;stroke-opacity:1" transform="translate(2343.7744 882.1045)"/>
    </g>
    <g style="stroke-width:0.506992">
      <path d="M0 0v2.042" style="fill:none;stroke:#ffffff;stroke-width:1.50071;stroke-linecap:round;stroke-linejoin:round;stroke-miterlimit:10;stroke-dasharray:none;stroke-opacity:1" transform="translate(2722.3867 882.1045)"/>
    </g>
    <g style="stroke-width:0.506992">
      <path d="M0 0v-2.042" style="fill:none;stroke:#ffffff;stroke-width:1.50071;stroke-linecap:round;stroke-linejoin:round;stroke-miterlimit:10;stroke-dasharray:none;stroke-opacity:1" transform="translate(2734.0361 853.5176)"/>
    </g>
    <g style="stroke-width:0.506992">
      <path d="m0 0-1.942 2.042" style="fill:none;stroke:#ffffff;stroke-width:1.50071;stroke-linecap:round;stroke-linejoin:round;stroke-miterlimit:10;stroke-dasharray:none;stroke-opacity:1" transform="translate(2701.0293 641.1553)"/>
    </g>
    <g style="stroke-width:0.506992">
      <path d="M0 0v-2.042" style="fill:none;stroke:#ffffff;stroke-width:1.50071;stroke-linecap:round;stroke-linejoin:round;stroke-miterlimit:10;stroke-dasharray:none;stroke-opacity:1" transform="translate(2801.9922 612.5684)"/>
    </g>
    <g style="stroke-width:0.506992">
      <path d="M0 0h-1.941" style="fill:none;stroke:#ffffff;stroke-width:1.50071;stroke-linecap:round;stroke-linejoin:round;stroke-miterlimit:10;stroke-dasharray:none;stroke-opacity:1" transform="translate(1848.665 873.9365)"/>
    </g>
    <g style="stroke-width:0.506992">
      <path d="M0 0v2.042" style="fill:none;stroke:#ffffff;stroke-width:1.50071;stroke-linecap:round;stroke-linejoin:round;stroke-miterlimit:10;stroke-dasharray:none;stroke-opacity:1" transform="translate(2048.6504 1206.7734)"/>
    </g>
    <g style="stroke-width:0.506992">
      <path d="M0 0h-1.941" style="fill:none;stroke:#ffffff;stroke-width:1.50071;stroke-linecap:round;stroke-linejoin:round;stroke-miterlimit:10;stroke-dasharray:none;stroke-opacity:1" transform="translate(2176.7959 1159.8086)"/>
    </g>
    <g style="stroke-width:0.506992">
      <path d="M0 0c-.647-.681-1.294-1.361-1.941-2.042" style="fill:none;stroke:#ffffff;stroke-width:1.50071;stroke-linecap:round;stroke-linejoin:round;stroke-miterlimit:10;stroke-dasharray:none;stroke-opacity:1" transform="translate(1926.3291 1662.126)"/>
    </g>
    <g style="stroke-width:0.506992">
      <path d="M0 0v2.042" style="fill:none;stroke:#ffffff;stroke-width:1.50071;stroke-linecap:round;stroke-linejoin:round;stroke-miterlimit:10;stroke-dasharray:none;stroke-opacity:1" transform="translate(1848.665 1717.2583)"/>
    </g>
    <g style="stroke-width:0.506992">
      <path d="M0 0h-1.941" style="fill:none;stroke:#ffffff;stroke-width:1.50071;stroke-linecap:round;stroke-linejoin:round;stroke-miterlimit:10;stroke-dasharray:none;stroke-opacity:1" transform="translate(1780.709 1484.4771)"/>
    </g>
    <g style="stroke-width:0.506992">
      <path d="M0 0h1.942" style="fill:none;stroke:#ffffff;stroke-width:1.50071;stroke-linecap:round;stroke-linejoin:round;stroke-miterlimit:10;stroke-dasharray:none;stroke-opacity:1" transform="translate(1736.0518 1380.3379)"/>
    </g>
    <g style="stroke-width:0.506992">
      <path d="M0 0h5.824" style="fill:none;stroke:#ffffff;stroke-width:1.50071;stroke-linecap:round;stroke-linejoin:round;stroke-miterlimit:10;stroke-dasharray:none;stroke-opacity:1" transform="translate(1489.4688 1619.2451)"/>
    </g>
    <g style="stroke-width:0.506992">
      <path d="M0 0h-1.941" style="fill:none;stroke:#ffffff;stroke-width:1.50071;stroke-linecap:round;stroke-linejoin:round;stroke-miterlimit:10;stroke-dasharray:none;stroke-opacity:1" transform="translate(1652.5635 1631.4971)"/>
    </g>
    <g style="stroke-width:0.506992">
      <path d="M0 0c.647.681 1.294 1.361 1.942 2.042" style="fill:none;stroke:#ffffff;stroke-width:1.50071;stroke-linecap:round;stroke-linejoin:round;stroke-miterlimit:10;stroke-dasharray:none;stroke-opacity:1" transform="translate(1184.6367 1490.603)"/>
    </g>
    <g style="stroke-width:0.506992">
      <path d="M0 0c.647-.681 1.294-1.361 1.941-2.042" style="fill:none;stroke:#ffffff;stroke-width:1.50071;stroke-linecap:round;stroke-linejoin:round;stroke-miterlimit:10;stroke-dasharray:none;stroke-opacity:1" transform="translate(1072.0239 1621.2871)"/>
    </g>
    <g style="stroke-width:0.506992">
      <path d="M0 0v2.042" style="fill:none;stroke:#ffffff;stroke-width:1.50071;stroke-linecap:round;stroke-linejoin:round;stroke-miterlimit:10;stroke-dasharray:none;stroke-opacity:1" transform="translate(819.6157 1265.9893)"/>
    </g>
    <g style="stroke-width:0.506992">
      <path d="M0 0h-1.942" style="fill:none;stroke:#ffffff;stroke-width:1.50071;stroke-linecap:round;stroke-linejoin:round;stroke-miterlimit:10;stroke-dasharray:none;stroke-opacity:1" transform="translate(740.0098 1245.5703)"/>
    </g>
    <g style="stroke-width:0.506992">
      <path d="M0 0h1.941" style="fill:none;stroke:#ffffff;stroke-width:1.50071;stroke-linecap:round;stroke-linejoin:round;stroke-miterlimit:10;stroke-dasharray:none;stroke-opacity:1" transform="translate(850.6812 1167.9761)"/>
    </g>
    <g style="stroke-width:0.506992">
      <path d="M0 0v2.042" style="fill:none;stroke:#ffffff;stroke-width:1.50071;stroke-linecap:round;stroke-linejoin:round;stroke-miterlimit:10;stroke-dasharray:none;stroke-opacity:1" transform="translate(759.4258 1084.2568)"/>
    </g>
    <g style="stroke-width:0.506992">
      <path d="M0 0c-1.603 0-1.603 0 0 0" style="fill:none;stroke:#ffffff;stroke-width:1.50071;stroke-linecap:round;stroke-linejoin:round;stroke-miterlimit:10;stroke-dasharray:none;stroke-opacity:1" transform="translate(842.9146 792.2588)"/>
    </g>
    <g style="stroke-width:0.506992">
      <path d="M0 0c-1.603 0-1.603 0 0 0" style="fill:none;stroke:#ffffff;stroke-width:1.50071;stroke-linecap:round;stroke-linejoin:round;stroke-miterlimit:10;stroke-dasharray:none;stroke-opacity:1" transform="translate(916.6958 824.9307)"/>
    </g>
    <g style="stroke-width:0.506992">
      <path d="M0 0c0 1.686 0 1.686 0 0" style="fill:none;stroke:#ffffff;stroke-width:1.50071;stroke-linecap:round;stroke-linejoin:round;stroke-miterlimit:10;stroke-dasharray:none;stroke-opacity:1" transform="translate(1000.1846 955.6143)"/>
    </g>
    <g style="stroke-width:0.506992">
      <path d="M0 0h1.941" style="fill:none;stroke:#ffffff;stroke-width:1.50071;stroke-linecap:round;stroke-linejoin:round;stroke-miterlimit:10;stroke-dasharray:none;stroke-opacity:1" transform="translate(840.9731 518.6396)"/>
    </g>
    <g style="stroke-width:0.506992">
      <path d="M0 0h1.941" style="fill:none;stroke:#ffffff;stroke-width:1.50071;stroke-linecap:round;stroke-linejoin:round;stroke-miterlimit:10;stroke-dasharray:none;stroke-opacity:1" transform="translate(720.5937 741.2109)"/>
    </g>
    <g style="stroke-width:0.506992">
      <path d="M0 0v2.042" style="fill:none;stroke:#ffffff;stroke-width:1.50071;stroke-linecap:round;stroke-linejoin:round;stroke-miterlimit:10;stroke-dasharray:none;stroke-opacity:1" transform="translate(532.2583 788.1758)"/>
    </g>
    <g style="stroke-width:0.506992">
      <path d="M0 0h1.942" style="fill:none;stroke:#ffffff;stroke-width:1.50071;stroke-linecap:round;stroke-linejoin:round;stroke-miterlimit:10;stroke-dasharray:none;stroke-opacity:1" transform="translate(163.3535 516.5977)"/>
    </g>
    <g style="stroke-width:0.506992">
      <path d="M0 0v2.042" style="fill:none;stroke:#ffffff;stroke-width:1.50071;stroke-linecap:round;stroke-linejoin:round;stroke-miterlimit:10;stroke-dasharray:none;stroke-opacity:1" transform="translate(91.5142 669.7432)"/>
    </g>
    <g style="stroke-width:0.506992">
      <path d="M0 0v-2.042" style="fill:none;stroke:#ffffff;stroke-width:1.50071;stroke-linecap:round;stroke-linejoin:round;stroke-miterlimit:10;stroke-dasharray:none;stroke-opacity:1" transform="translate(23.5581 620.7363)"/>
    </g>
    <g style="stroke-width:0.506992">
      <path d="M0 0c-.647.681-1.294 1.361-1.941 2.042" style="fill:none;stroke:#ffffff;stroke-width:1.50071;stroke-linecap:round;stroke-linejoin:round;stroke-miterlimit:10;stroke-dasharray:none;stroke-opacity:1" transform="translate(136.1709 835.1396)"/>
    </g>
    <g style="stroke-width:0.506992">
      <path d="M0 0h-1.941" style="fill:none;stroke:#ffffff;stroke-width:1.50071;stroke-linecap:round;stroke-linejoin:round;stroke-miterlimit:10;stroke-dasharray:none;stroke-opacity:1" transform="translate(91.5142 933.1533)"/>
    </g>
    <g style="stroke-width:0.506992">
      <path d="M0 0h3.883" style="fill:none;stroke:#ffffff;stroke-width:1.50071;stroke-linecap:round;stroke-linejoin:round;stroke-miterlimit:10;stroke-dasharray:none;stroke-opacity:1" transform="translate(374.9883 1204.731)"/>
    </g>
    <g style="stroke-width:0.506992">
      <path d="M0 0c.647.681 1.294 1.361 1.941 2.042" style="fill:none;stroke:#ffffff;stroke-width:1.50071;stroke-linecap:round;stroke-linejoin:round;stroke-miterlimit:10;stroke-dasharray:none;stroke-opacity:1" transform="translate(551.6743 1214.9409)"/>
    </g>
    <g style="stroke-width:0.506992">
      <path d="M0 0c.647-.681 1.294-1.361 1.941-2.042" style="fill:none;stroke:#ffffff;stroke-width:1.50071;stroke-linecap:round;stroke-linejoin:round;stroke-miterlimit:10;stroke-dasharray:none;stroke-opacity:1" transform="translate(594.3896 1118.9697)"/>
    </g>
    <g style="stroke-width:0.506992">
      <path d="M0 0h1.942" style="fill:none;stroke:#ffffff;stroke-width:1.50071;stroke-linecap:round;stroke-linejoin:round;stroke-miterlimit:10;stroke-dasharray:none;stroke-opacity:1" transform="translate(231.3096 1272.1152)"/>
    </g>
    <g style="stroke-width:0.506992">
      <path d="M0 0h1.942" style="fill:none;stroke:#ffffff;stroke-width:1.50071;stroke-linecap:round;stroke-linejoin:round;stroke-miterlimit:10;stroke-dasharray:none;stroke-opacity:1" transform="translate(299.2656 1314.9961)"/>
    </g>
    <g style="stroke-width:0.506992">
      <path d="M0 0h1.942" style="fill:none;stroke:#ffffff;stroke-width:1.50071;stroke-linecap:round;stroke-linejoin:round;stroke-miterlimit:10;stroke-dasharray:none;stroke-opacity:1" transform="translate(126.4629 1388.5059)"/>
    </g>
    <g style="stroke-width:0.506992">
      <path d="M0 0c0 1.686 0 1.686 0 0" style="fill:none;stroke:#ffffff;stroke-width:1.50071;stroke-linecap:round;stroke-linejoin:round;stroke-miterlimit:10;stroke-dasharray:none;stroke-opacity:1" transform="translate(679.8198 1421.1768)"/>
    </g>
    <g style="stroke-width:0.506992">
      <path d="M0 0h1.941" style="fill:none;stroke:#ffffff;stroke-width:1.50071;stroke-linecap:round;stroke-linejoin:round;stroke-miterlimit:10;stroke-dasharray:none;stroke-opacity:1" transform="translate(557.499 1664.168)"/>
    </g>
    <g style="stroke-width:0.506992">
      <path d="M0 0v-2.042" style="fill:none;stroke:#ffffff;stroke-width:1.50071;stroke-linecap:round;stroke-linejoin:round;stroke-miterlimit:10;stroke-dasharray:none;stroke-opacity:1" transform="translate(716.7104 1735.6357)"/>
    </g>
    <g style="stroke-width:0.506992">
      <path d="M0 0c.647-.681 1.294-1.361 1.941-2.042" style="fill:none;stroke:#ffffff;stroke-width:1.50071;stroke-linecap:round;stroke-linejoin:round;stroke-miterlimit:10;stroke-dasharray:none;stroke-opacity:1" transform="translate(474.0103 1760.1392)"/>
    </g>
    <g style="stroke-width:0.506992">
      <path d="M0 0v2.042" style="fill:none;stroke:#ffffff;stroke-width:1.50071;stroke-linecap:round;stroke-linejoin:round;stroke-miterlimit:10;stroke-dasharray:none;stroke-opacity:1" transform="translate(322.5649 1778.5166)"/>
    </g>
    <g style="stroke-width:0.506992">
      <path d="M0 0h-1.942" style="fill:none;stroke:#ffffff;stroke-width:1.50071;stroke-linecap:round;stroke-linejoin:round;stroke-miterlimit:10;stroke-dasharray:none;stroke-opacity:1" transform="translate(70.1567 1684.5874)"/>
    </g>
    <g style="stroke-width:0.506992">
      <path d="M0 0c.647.681 1.294 1.361 1.942 2.042" style="fill:none;stroke:#ffffff;stroke-width:1.50071;stroke-linecap:round;stroke-linejoin:round;stroke-miterlimit:10;stroke-dasharray:none;stroke-opacity:1" transform="translate(136.1709 1782.6006)"/>
    </g>
    <g style="stroke-width:0.506992">
      <g clip-path="url(#d)" opacity=".399994" style="stroke-width:0.707008">
        <g style="stroke-width:0.506992">
          <path d="M0 0v-1.059" style="fill:none;stroke:#ffffff;stroke-width:1.37852;stroke-linecap:round;stroke-linejoin:round;stroke-miterlimit:10;stroke-dasharray:none;stroke-opacity:1" transform="translate(513.5337 612.7305)"/>
        </g>
        <g style="stroke-width:0.506992">
          <path d="M0 0c.335.354.671.706 1.006 1.059" style="fill:none;stroke:#ffffff;stroke-width:1.37852;stroke-linecap:round;stroke-linejoin:round;stroke-miterlimit:10;stroke-dasharray:none;stroke-opacity:1" transform="translate(568.8911 728.1074)"/>
        </g>
        <g style="stroke-width:0.506992">
          <path d="M0 0h1.006" style="fill:none;stroke:#ffffff;stroke-width:1.37852;stroke-linecap:round;stroke-linejoin:round;stroke-miterlimit:10;stroke-dasharray:none;stroke-opacity:1" transform="translate(703.7607 650.8369)"/>
        </g>
        <g style="stroke-width:0.506992">
          <path d="M0 0v-1.059" style="fill:none;stroke:#ffffff;stroke-width:1.37852;stroke-linecap:round;stroke-linejoin:round;stroke-miterlimit:10;stroke-dasharray:none;stroke-opacity:1" transform="translate(664.5073 758.8047)"/>
        </g>
        <g style="stroke-width:0.506992">
          <path d="M0 0c.086.517-.943.478-.822-.031" style="fill:none;stroke:#ffffff;stroke-width:1.37852;stroke-linecap:round;stroke-linejoin:round;stroke-miterlimit:10;stroke-dasharray:none;stroke-opacity:1" transform="translate(594.8823 871.0391)"/>
        </g>
        <g style="stroke-width:0.506992">
          <path d="M0 0v1.059" style="fill:none;stroke:#ffffff;stroke-width:1.37852;stroke-linecap:round;stroke-linejoin:round;stroke-miterlimit:10;stroke-dasharray:none;stroke-opacity:1" transform="translate(728.9229 835.0166)"/>
        </g>
        <g style="stroke-width:0.506992">
          <path d="M0 0c-.335-.353-.671-.706-1.006-1.059" style="fill:none;stroke:#ffffff;stroke-width:1.37852;stroke-linecap:round;stroke-linejoin:round;stroke-miterlimit:10;stroke-dasharray:none;stroke-opacity:1" transform="translate(661.4878 1009.6699)"/>
        </g>
        <g style="stroke-width:0.506992">
          <path d="M0 0v-1.059" style="fill:none;stroke:#ffffff;stroke-width:1.37852;stroke-linecap:round;stroke-linejoin:round;stroke-miterlimit:10;stroke-dasharray:none;stroke-opacity:1" transform="translate(370.6123 857.2451)"/>
        </g>
        <g style="stroke-width:0.506992">
          <path d="M0 0c-.335-.353-.671-.706-1.006-1.059" style="fill:none;stroke:#ffffff;stroke-width:1.37852;stroke-linecap:round;stroke-linejoin:round;stroke-miterlimit:10;stroke-dasharray:none;stroke-opacity:1" transform="translate(183.4048 882.6494)"/>
        </g>
        <g style="stroke-width:0.506992">
          <path d="M0 0v1.059" style="fill:none;stroke:#ffffff;stroke-width:1.37852;stroke-linecap:round;stroke-linejoin:round;stroke-miterlimit:10;stroke-dasharray:none;stroke-opacity:1" transform="translate(238.7617 797.9687)"/>
        </g>
        <g style="stroke-width:0.506992">
          <path d="M0 0v-1.059" style="fill:none;stroke:#ffffff;stroke-width:1.37852;stroke-linecap:round;stroke-linejoin:round;stroke-miterlimit:10;stroke-dasharray:none;stroke-opacity:1" transform="translate(193.4697 661.4219)"/>
        </g>
        <g style="stroke-width:0.506992">
          <path d="M0 0c-.336-.706-.671-1.411-1.007-2.117" style="fill:none;stroke:#ffffff;stroke-width:1.37852;stroke-linecap:round;stroke-linejoin:round;stroke-miterlimit:10;stroke-dasharray:none;stroke-opacity:1" transform="translate(164.2817 630.7256)"/>
        </g>
        <g style="stroke-width:0.506992">
          <path d="M0 0v-1.059" style="fill:none;stroke:#ffffff;stroke-width:1.37852;stroke-linecap:round;stroke-linejoin:round;stroke-miterlimit:10;stroke-dasharray:none;stroke-opacity:1" transform="translate(138.1128 670.9482)"/>
        </g>
        <g style="stroke-width:0.506992">
          <path d="M0 0h1.006" style="fill:none;stroke:#ffffff;stroke-width:1.37852;stroke-linecap:round;stroke-linejoin:round;stroke-miterlimit:10;stroke-dasharray:none;stroke-opacity:1" transform="translate(282.041 650.8369)"/>
        </g>
        <g style="stroke-width:0.506992">
          <path d="M0 0v-1.875" style="fill:none;stroke:#ffffff;stroke-width:1.37852;stroke-linecap:round;stroke-linejoin:round;stroke-miterlimit:10;stroke-dasharray:none;stroke-opacity:1" transform="translate(254.396 919.5303)"/>
        </g>
        <g style="stroke-width:0.506992">
          <path d="M0 0v-1.875" style="fill:none;stroke:#ffffff;stroke-width:1.37852;stroke-linecap:round;stroke-linejoin:round;stroke-miterlimit:10;stroke-dasharray:none;stroke-opacity:1" transform="translate(322.1528 1099.5513)"/>
        </g>
        <g style="stroke-width:0.506992">
          <path d="M0 0h1.783" style="fill:none;stroke:#ffffff;stroke-width:1.37852;stroke-linecap:round;stroke-linejoin:round;stroke-miterlimit:10;stroke-dasharray:none;stroke-opacity:1" transform="translate(382.7773 1429.5898)"/>
        </g>
        <g style="stroke-width:0.506992">
          <path d="M0 0h-1.783" style="fill:none;stroke:#ffffff;stroke-width:1.37852;stroke-linecap:round;stroke-linejoin:round;stroke-miterlimit:10;stroke-dasharray:none;stroke-opacity:1" transform="translate(528.9893 1478.3457)"/>
        </g>
        <g style="stroke-width:0.506992">
          <path d="M0 0h-3.566" style="fill:none;stroke:#ffffff;stroke-width:1.37852;stroke-linecap:round;stroke-linejoin:round;stroke-miterlimit:10;stroke-dasharray:none;stroke-opacity:1" transform="translate(584.2642 1408.9624)"/>
        </g>
        <g style="stroke-width:0.506992">
          <path d="M0 0v-1.875" style="fill:none;stroke:#ffffff;stroke-width:1.37852;stroke-linecap:round;stroke-linejoin:round;stroke-miterlimit:10;stroke-dasharray:none;stroke-opacity:1" transform="translate(236.5649 1408.9624)"/>
        </g>
        <g style="stroke-width:0.506992">
          <path d="M0 0v1.875" style="fill:none;stroke:#ffffff;stroke-width:1.37852;stroke-linecap:round;stroke-linejoin:round;stroke-miterlimit:10;stroke-dasharray:none;stroke-opacity:1" transform="translate(225.8667 1435.2158)"/>
        </g>
        <g style="stroke-width:0.506992">
          <path d="M0 0c.595-.625 1.189-1.25 1.783-1.875" style="fill:none;stroke:#ffffff;stroke-width:1.37852;stroke-linecap:round;stroke-linejoin:round;stroke-miterlimit:10;stroke-dasharray:none;stroke-opacity:1" transform="translate(256.1787 1630.2383)"/>
        </g>
        <g style="stroke-width:0.506992">
          <path d="M0 0v1.875" style="fill:none;stroke:#ffffff;stroke-width:1.37852;stroke-linecap:round;stroke-linejoin:round;stroke-miterlimit:10;stroke-dasharray:none;stroke-opacity:1" transform="translate(163.459 1656.4912)"/>
        </g>
        <g style="stroke-width:0.506992">
          <path d="M0 0h1.783" style="fill:none;stroke:#ffffff;stroke-width:1.37852;stroke-linecap:round;stroke-linejoin:round;stroke-miterlimit:10;stroke-dasharray:none;stroke-opacity:1" transform="translate(1038.9482 1416.4634)"/>
        </g>
        <g style="stroke-width:0.506992">
          <path d="M0 0v-1.875" style="fill:none;stroke:#ffffff;stroke-width:1.37852;stroke-linecap:round;stroke-linejoin:round;stroke-miterlimit:10;stroke-dasharray:none;stroke-opacity:1" transform="translate(855.2915 1110.8027)"/>
        </g>
        <g style="stroke-width:0.506992">
          <path d="M0 0h1.783" style="fill:none;stroke:#ffffff;stroke-width:1.37852;stroke-linecap:round;stroke-linejoin:round;stroke-miterlimit:10;stroke-dasharray:none;stroke-opacity:1" transform="translate(737.6089 1153.9326)"/>
        </g>
        <g style="stroke-width:0.506992">
          <path d="m0 0 1.783 1.875" style="fill:none;stroke:#ffffff;stroke-width:1.37852;stroke-linecap:round;stroke-linejoin:round;stroke-miterlimit:10;stroke-dasharray:none;stroke-opacity:1" transform="translate(967.6255 692.6289)"/>
        </g>
        <g style="stroke-width:0.506992">
          <path d="M0 0v-1.875" style="fill:none;stroke:#ffffff;stroke-width:1.37852;stroke-linecap:round;stroke-linejoin:round;stroke-miterlimit:10;stroke-dasharray:none;stroke-opacity:1" transform="translate(1038.9482 641.998)"/>
        </g>
        <g style="stroke-width:0.506992">
          <path d="M0 0h1.783" style="fill:none;stroke:#ffffff;stroke-width:1.37852;stroke-linecap:round;stroke-linejoin:round;stroke-miterlimit:10;stroke-dasharray:none;stroke-opacity:1" transform="translate(1101.356 855.7734)"/>
        </g>
        <g style="stroke-width:0.506992">
          <path d="M0 0h-1.783" style="fill:none;stroke:#ffffff;stroke-width:1.37852;stroke-linecap:round;stroke-linejoin:round;stroke-miterlimit:10;stroke-dasharray:none;stroke-opacity:1" transform="translate(1142.3667 951.4092)"/>
        </g>
        <g style="stroke-width:0.506992">
          <path d="M0 0h-5.349" style="fill:none;stroke:#ffffff;stroke-width:1.37852;stroke-linecap:round;stroke-linejoin:round;stroke-miterlimit:10;stroke-dasharray:none;stroke-opacity:1" transform="translate(1368.8169 732.0088)"/>
        </g>
        <g style="stroke-width:0.506992">
          <path d="M0 0h1.783" style="fill:none;stroke:#ffffff;stroke-width:1.37852;stroke-linecap:round;stroke-linejoin:round;stroke-miterlimit:10;stroke-dasharray:none;stroke-opacity:1" transform="translate(1219.0386 720.7568)"/>
        </g>
        <g style="stroke-width:0.506992">
          <path d="M0 0c-.595-.625-1.189-1.25-1.783-1.875" style="fill:none;stroke:#ffffff;stroke-width:1.37852;stroke-linecap:round;stroke-linejoin:round;stroke-miterlimit:10;stroke-dasharray:none;stroke-opacity:1" transform="translate(1648.7598 850.1475)"/>
        </g>
        <g style="stroke-width:0.506992">
          <path d="M0 0c-.595.625-1.188 1.25-1.783 1.875" style="fill:none;stroke:#ffffff;stroke-width:1.37852;stroke-linecap:round;stroke-linejoin:round;stroke-miterlimit:10;stroke-dasharray:none;stroke-opacity:1" transform="translate(1752.1777 730.1338)"/>
        </g>
        <g style="stroke-width:0.506992">
          <path d="M0 0v-1.875" style="fill:none;stroke:#ffffff;stroke-width:1.37852;stroke-linecap:round;stroke-linejoin:round;stroke-miterlimit:10;stroke-dasharray:none;stroke-opacity:1" transform="translate(1983.9775 1056.4214)"/>
        </g>
        <g style="stroke-width:0.506992">
          <path d="M0 0h1.783" style="fill:none;stroke:#ffffff;stroke-width:1.37852;stroke-linecap:round;stroke-linejoin:round;stroke-miterlimit:10;stroke-dasharray:none;stroke-opacity:1" transform="translate(2057.083 1075.1738)"/>
        </g>
        <g style="stroke-width:0.506992">
          <path d="M0 0h-1.783" style="fill:none;stroke:#ffffff;stroke-width:1.37852;stroke-linecap:round;stroke-linejoin:round;stroke-miterlimit:10;stroke-dasharray:none;stroke-opacity:1" transform="translate(1955.4482 1146.4321)"/>
        </g>
        <g style="stroke-width:0.506992">
          <path d="M0 0v-1.875" style="fill:none;stroke:#ffffff;stroke-width:1.37852;stroke-linecap:round;stroke-linejoin:round;stroke-miterlimit:10;stroke-dasharray:none;stroke-opacity:1" transform="translate(2039.2529 1223.3159)"/>
        </g>
        <g style="stroke-width:0.506992">
          <path d="M0 0c1.473 0 1.473 0 0 0" style="fill:none;stroke:#ffffff;stroke-width:1.37852;stroke-linecap:round;stroke-linejoin:round;stroke-miterlimit:10;stroke-dasharray:none;stroke-opacity:1" transform="translate(1962.5801 1491.4722)"/>
        </g>
        <g style="stroke-width:0.506992">
          <path d="M0 0c1.473 0 1.473 0 0 0" style="fill:none;stroke:#ffffff;stroke-width:1.37852;stroke-linecap:round;stroke-linejoin:round;stroke-miterlimit:10;stroke-dasharray:none;stroke-opacity:1" transform="translate(1894.8232 1461.4688)"/>
        </g>
        <g style="stroke-width:0.506992">
          <path d="M0 0c0-1.548 0-1.548 0 0" style="fill:none;stroke:#ffffff;stroke-width:1.37852;stroke-linecap:round;stroke-linejoin:round;stroke-miterlimit:10;stroke-dasharray:none;stroke-opacity:1" transform="translate(1818.1514 1341.4546)"/>
        </g>
        <g style="stroke-width:0.506992">
          <path d="M0 0h-1.783" style="fill:none;stroke:#ffffff;stroke-width:1.37852;stroke-linecap:round;stroke-linejoin:round;stroke-miterlimit:10;stroke-dasharray:none;stroke-opacity:1" transform="translate(1964.3633 1742.7515)"/>
        </g>
        <g style="stroke-width:0.506992">
          <path d="M0 0h-1.783" style="fill:none;stroke:#ffffff;stroke-width:1.37852;stroke-linecap:round;stroke-linejoin:round;stroke-miterlimit:10;stroke-dasharray:none;stroke-opacity:1" transform="translate(2074.9141 1538.3525)"/>
        </g>
        <g style="stroke-width:0.506992">
          <path d="M0 0v-1.875" style="fill:none;stroke:#ffffff;stroke-width:1.37852;stroke-linecap:round;stroke-linejoin:round;stroke-miterlimit:10;stroke-dasharray:none;stroke-opacity:1" transform="translate(2247.8721 1495.2227)"/>
        </g>
        <g style="stroke-width:0.506992">
          <path d="M0 0h-1.783" style="fill:none;stroke:#ffffff;stroke-width:1.37852;stroke-linecap:round;stroke-linejoin:round;stroke-miterlimit:10;stroke-dasharray:none;stroke-opacity:1" transform="translate(2586.6563 1744.6265)"/>
        </g>
        <g style="stroke-width:0.506992">
          <path d="M0 0v-1.875" style="fill:none;stroke:#ffffff;stroke-width:1.37852;stroke-linecap:round;stroke-linejoin:round;stroke-miterlimit:10;stroke-dasharray:none;stroke-opacity:1" transform="translate(2652.6299 1603.9854)"/>
        </g>
        <g style="stroke-width:0.506992">
          <path d="M0 0v1.875" style="fill:none;stroke:#ffffff;stroke-width:1.37852;stroke-linecap:round;stroke-linejoin:round;stroke-miterlimit:10;stroke-dasharray:none;stroke-opacity:1" transform="translate(2715.0371 1648.9907)"/>
        </g>
        <g style="stroke-width:0.506992">
          <path d="M0 0c.595-.625 1.188-1.25 1.783-1.875" style="fill:none;stroke:#ffffff;stroke-width:1.37852;stroke-linecap:round;stroke-linejoin:round;stroke-miterlimit:10;stroke-dasharray:none;stroke-opacity:1" transform="translate(2611.6191 1452.0928)"/>
        </g>
        <g style="stroke-width:0.506992">
          <path d="M0 0h1.783" style="fill:none;stroke:#ffffff;stroke-width:1.37852;stroke-linecap:round;stroke-linejoin:round;stroke-miterlimit:10;stroke-dasharray:none;stroke-opacity:1" transform="translate(2652.6299 1362.082)"/>
        </g>
        <g style="stroke-width:0.506992">
          <path d="M0 0h-3.565" style="fill:none;stroke:#ffffff;stroke-width:1.37852;stroke-linecap:round;stroke-linejoin:round;stroke-miterlimit:10;stroke-dasharray:none;stroke-opacity:1" transform="translate(2392.3008 1112.6782)"/>
        </g>
        <g style="stroke-width:0.506992">
          <path d="m0 0-1.782-1.875" style="fill:none;stroke:#ffffff;stroke-width:1.37852;stroke-linecap:round;stroke-linejoin:round;stroke-miterlimit:10;stroke-dasharray:none;stroke-opacity:1" transform="translate(2230.041 1103.3018)"/>
        </g>
        <g style="stroke-width:0.506992">
          <path d="m0 0-1.782 1.875" style="fill:none;stroke:#ffffff;stroke-width:1.37852;stroke-linecap:round;stroke-linejoin:round;stroke-miterlimit:10;stroke-dasharray:none;stroke-opacity:1" transform="translate(2190.8135 1191.437)"/>
        </g>
        <g style="stroke-width:0.506992">
          <path d="M0 0h-1.783" style="fill:none;stroke:#ffffff;stroke-width:1.37852;stroke-linecap:round;stroke-linejoin:round;stroke-miterlimit:10;stroke-dasharray:none;stroke-opacity:1" transform="translate(2524.249 1050.7959)"/>
        </g>
        <g style="stroke-width:0.506992">
          <path d="M0 0h-1.783" style="fill:none;stroke:#ffffff;stroke-width:1.37852;stroke-linecap:round;stroke-linejoin:round;stroke-miterlimit:10;stroke-dasharray:none;stroke-opacity:1" transform="translate(2461.8408 1011.416)"/>
        </g>
        <g style="stroke-width:0.506992">
          <path d="M0 0h-1.782" style="fill:none;stroke:#ffffff;stroke-width:1.37852;stroke-linecap:round;stroke-linejoin:round;stroke-miterlimit:10;stroke-dasharray:none;stroke-opacity:1" transform="translate(2620.5342 943.9082)"/>
        </g>
        <g style="stroke-width:0.506992">
          <path d="M0 0c0-1.548 0-1.548 0 0" style="fill:none;stroke:#ffffff;stroke-width:1.37852;stroke-linecap:round;stroke-linejoin:round;stroke-miterlimit:10;stroke-dasharray:none;stroke-opacity:1" transform="translate(2112.3584 913.9048)"/>
        </g>
        <g style="stroke-width:0.506992">
          <path d="M0 0h-1.783" style="fill:none;stroke:#ffffff;stroke-width:1.37852;stroke-linecap:round;stroke-linejoin:round;stroke-miterlimit:10;stroke-dasharray:none;stroke-opacity:1" transform="translate(2224.6924 690.7539)"/>
        </g>
        <g style="stroke-width:0.506992">
          <path d="M0 0v1.875" style="fill:none;stroke:#ffffff;stroke-width:1.37852;stroke-linecap:round;stroke-linejoin:round;stroke-miterlimit:10;stroke-dasharray:none;stroke-opacity:1" transform="translate(2078.4805 625.1211)"/>
        </g>
        <g style="stroke-width:0.506992">
          <path d="M0 0c-.594.625-1.188 1.25-1.783 1.876" style="fill:none;stroke:#ffffff;stroke-width:1.37852;stroke-linecap:round;stroke-linejoin:round;stroke-miterlimit:10;stroke-dasharray:none;stroke-opacity:1" transform="translate(2301.3643 602.6182)"/>
        </g>
        <g style="stroke-width:0.506992">
          <path d="M0 0v-1.875" style="fill:none;stroke:#ffffff;stroke-width:1.37852;stroke-linecap:round;stroke-linejoin:round;stroke-miterlimit:10;stroke-dasharray:none;stroke-opacity:1" transform="translate(2440.4443 585.7412)"/>
        </g>
        <g style="stroke-width:0.506992">
          <path d="M0 0h1.782" style="fill:none;stroke:#ffffff;stroke-width:1.37852;stroke-linecap:round;stroke-linejoin:round;stroke-miterlimit:10;stroke-dasharray:none;stroke-opacity:1" transform="translate(2672.2441 672.002)"/>
        </g>
        <g style="stroke-width:0.506992">
          <path d="M0 0c-.595-.625-1.188-1.25-1.783-1.875" style="fill:none;stroke:#ffffff;stroke-width:1.37852;stroke-linecap:round;stroke-linejoin:round;stroke-miterlimit:10;stroke-dasharray:none;stroke-opacity:1" transform="translate(2611.6191 581.9912)"/>
        </g>
      </g>
    </g>
  </g>
  <g clip-path="url(#e)" style="stroke-width:0.506992" transform="matrix(1.4005 0 0 -.88502 13.83086 1597.973)">
    <g style="stroke-width:0.506992">
      <path d="M0 0c-.05.085-.025.129.021.163C.051.135.072.1 0 0" style="fill:#548fba;fill-opacity:1;fill-rule:nonzero;stroke:none;stroke-width:0.506992" transform="translate(330.9512 472.9199)"/>
    </g>
    <g style="stroke-width:0.506992">
      <path d="M0 0c-.054.07-.055.142-.04.215C.011.142.038.069 0 0" style="fill:#548fba;fill-opacity:1;fill-rule:nonzero;stroke:none;stroke-width:0.506992" transform="translate(547.7607 432.3252)"/>
    </g>
    <g style="stroke-width:0.506992">
      <path d="M0 0c-.074.092-.061.207-.028.329C.019.214.054.101 0 0" style="fill:#548fba;fill-opacity:1;fill-rule:nonzero;stroke:none;stroke-width:0.506992" transform="translate(726.8281 407.498)"/>
    </g>
    <g style="stroke-width:0.506992">
      <path d="M0 0c-.036-.149-.074-.294-.133-.396-.039.097.034.242.133.396" style="fill:#548fba;fill-opacity:1;fill-rule:nonzero;stroke:none;stroke-width:0.506992" transform="translate(776.7905 390.6777)"/>
    </g>
    <g style="stroke-width:0.506992">
      <path d="M0 0c-.021.079-.005.122.023.151C.067.122.087.082 0 0" style="fill:#548fba;fill-opacity:1;fill-rule:nonzero;stroke:none;stroke-width:0.506992" transform="translate(840.8628 392.749)"/>
    </g>
    <g style="stroke-width:0.506992">
      <path d="M0 0c.006-.106.016-.212.011-.349C-.067-.23-.036-.115 0 0" style="fill:#548fba;fill-opacity:1;fill-rule:nonzero;stroke:none;stroke-width:0.506992" transform="translate(1355.1001 304.8281)"/>
    </g>
    <g style="stroke-width:0.506992">
      <path d="M0 0c-.063.079-.04.189.009.309C.048.19.064.08 0 0" style="fill:#548fba;fill-opacity:1;fill-rule:nonzero;stroke:none;stroke-width:0.506992" transform="translate(1467.4736 302.8623)"/>
    </g>
    <g style="stroke-width:0.506992">
      <path d="M0 0c-.036.067-.012.171.034.286C.059.165.06.061 0 0" style="fill:#548fba;fill-opacity:1;fill-rule:nonzero;stroke:none;stroke-width:0.506992" transform="translate(1575.374 295.7852)"/>
    </g>
    <g style="stroke-width:0.506992">
      <path d="M0 0c.056-.32-.296-.76-.194-1.075.102-.317.667-.494.812-.804.219.329.052.559-.053.892C.469-.679.453-.278 0 0" style="fill:#296b7b;fill-opacity:1;fill-rule:nonzero;stroke:none;stroke-width:0.506992" transform="translate(956.7495 299.7764)"/>
    </g>
    <g style="stroke-width:0.506992">
      <path d="M0 0c.175.271 1.672 1.022 1.846 1.295.175.272-.931.395-.756.668-.538-.171-.851.014-1.014-.268C-.09 1.409-.144.325 0 0" style="fill:#296b7b;fill-opacity:1;fill-rule:nonzero;stroke:none;stroke-width:0.506992" transform="translate(1703.4463 351.8281)"/>
    </g>
    <g style="stroke-width:0.506992">
      <path d="M0 0c.448.404 1.03 1.762 1.366 2.201C.625 1.792.084.424 0 0" style="fill:#296b7b;fill-opacity:1;fill-rule:nonzero;stroke:none;stroke-width:0.506992" transform="translate(1112.3818 256.7324)"/>
    </g>
    <g style="stroke-width:0.506992">
      <g clip-path="url(#f)" opacity=".25" style="stroke-width:0.707008">
        <g style="stroke-width:0.506992">
          <g style="stroke-width:0.707008">
            <g style="stroke-width:0.506992" clip-path="url(#g)" opacity=".399994">
              <path d="M0 0c-66.354 21.728-142.627 9.04-212.106 24.813 17.705 14.391 10.4 45.862-9.068 57.758-19.47 11.895-44.73 8.641-66.05.517 4.507 30.33-26.195 57.531-56.854 58.054-30.659.523-58.502-18.79-78.4-42.121-3.379 63.264-54.48 116.904-114.094 138.351-21.096 7.59-43.61 11.888-65.973 10.306-45.62-3.227-87.515-31.553-112.323-69.972-24.808-38.42-33.55-85.824-29.882-131.409-10.539 10.538-26.524 15.847-40.973 12.19-14.448-3.656-26.374-16.868-27.1-31.755-.726-14.887 17.662-44.229 32.485-45.781 0 0 515.968-2.82 778.551 6.114C5.636-12.683 7.059-2.312 0 0" style="fill:#ffffff;fill-opacity:1;fill-rule:nonzero;stroke:none;stroke-width:0.506992" transform="translate(968.8892 1150.6172)"/>
            </g>
          </g>
        </g>
        <g style="stroke-width:0.506992">
          <g style="stroke-width:0.707008">
            <g style="stroke-width:0.506992" clip-path="url(#h)" opacity=".399994">
              <path d="M0 0c-31.805 10.415-68.365 4.333-101.669 11.894 8.486 6.898 4.985 21.982-4.347 27.685-9.332 5.701-21.44 4.142-31.659.247 2.16 14.539-12.556 27.577-27.252 27.827-14.696.251-28.042-9.006-37.579-20.19-1.62 30.325-26.114 56.037-54.689 66.317-10.113 3.637-20.904 5.698-31.623 4.94-21.867-1.548-41.949-15.125-53.84-33.54-11.891-18.416-16.082-41.138-14.323-62.989-5.052 5.052-12.714 7.596-19.64 5.844-6.926-1.753-12.642-8.086-12.989-15.222-.349-7.135 8.465-21.2 15.57-21.944 0 0 247.319-1.351 373.184 2.931C2.702-6.079 3.384-1.108 0 0" style="fill:#ffffff;fill-opacity:1;fill-rule:nonzero;stroke:none;stroke-width:0.506992" transform="translate(2789.6504 1533.4121)"/>
            </g>
          </g>
        </g>
        <g style="stroke-width:0.506992">
          <g style="stroke-width:0.707008">
            <g style="stroke-width:0.506992" clip-path="url(#i)" opacity=".399994">
              <path d="m0 0-96.813 10.824c-3.139 17.121-19.205 29.644-36.189 33.449-16.986 3.805-34.725.483-51.553-3.965 1.277 10.826-8.059 20.811-18.66 23.354-10.601 2.543-21.777-.777-31.53-5.649-.838 42.628-11.792 90.642-48.59 112.177-33.534 19.625-78.392 9.148-108.247-15.717-29.854-24.866-47.513-61.226-61.707-97.394-7.399 9.434-20.713 13.765-32.246 10.488-11.533-3.277-20.582-13.961-21.914-25.876-11.683 8.057-25.723 13.524-39.867 12.359-14.143-1.165-28.114-9.999-32.688-23.433-4.575-13.433 2.746-30.533 16.445-34.239l576.073-7.59C15.482-5.286 6.586-.736 0 0" style="fill:#ffffff;fill-opacity:1;fill-rule:nonzero;stroke:none;stroke-width:0.506992" transform="translate(1351.9741 1503.582)"/>
            </g>
          </g>
        </g>
        <g style="stroke-width:0.506992">
          <g style="stroke-width:0.707008">
            <g style="stroke-width:0.506992" clip-path="url(#j)" opacity=".399994">
              <path d="M0 0c14.264 34.404-25.564 68.166-45.721 68.995-20.157.828-39.198-8.414-57.245-17.432 17.786 49.121-14.538 107.371-62.883 127.17-48.342 19.801-106.007 5.802-147.34-26.147-41.333-31.949-68.217-79.366-86.068-128.463-8.204 25.769-48.381 30.351-65.958 9.797-17.576-20.553-11.607-54.722 8.556-72.745h630.727c4.27 0 6.287 5.216 3.176 8.141C131.116 12.672 65.746 11.104 0 0" style="fill:#ffffff;fill-opacity:1;fill-rule:nonzero;stroke:none;stroke-width:0.506992" transform="translate(2533.5176 1148.291)"/>
            </g>
          </g>
        </g>
        <g style="stroke-width:0.506992">
          <g style="stroke-width:0.707008">
            <g style="stroke-width:0.506992" clip-path="url(#k)" opacity=".399994">
              <path d="M0 0c-5.625 23.836-37.324 37.01-58.187 24.181-.334 11.656-7.837 22.81-18.505 27.516-10.669 4.706-23.965 2.726-32.8-4.884 3.236 32.469-16.591 65.253-45.741 79.917-29.15 14.665-65.67 11.77-93.707-4.923-28.038-16.694-47.543-46.029-55.029-77.789-14.968 17.009-43.773 19.336-61.278 4.95-17.504-14.386-15.969-47.926-2.182-65.905L96.099-14.46C104.845-3.557 32.138 4.125 0 0" style="fill:#ffffff;fill-opacity:1;fill-rule:nonzero;stroke:none;stroke-width:0.506992" transform="translate(1981.1855 1366.3877)"/>
            </g>
          </g>
        </g>
      </g>
    </g>
  </g>
</svg>
