<svg width="2500" height="1000" viewBox="0 0 4000.832 1600.3328" xmlns="http://www.w3.org/2000/svg">
  <defs>
    <clipPath clipPathUnits="userSpaceOnUse" id="a">
      <path d="M0 1800h2850V0H0Z"/>
    </clipPath>
  </defs>
  <g clip-path="url(#a)" style="stroke-width:1.90456" transform="matrix(1.40583 0 0 -.89284 -1.8239633 1614.3258)">
    <g style="stroke-width:1.90456">
      <path d="M0 0c.092-.12.123-.242.031-.364-.415-.561-.974-1.057-2.004-1.035C-2.659-1.385-1.078-.662 0 0m102.228 38.477c-.343-.327-.419.296-.688.805.518-.329.878-.625.688-.805m51.975 8.586c-.099.608-2.579.464-2.678 1.073-.085.518 1.937.713 2.464 1.136.824-.542 3.24-1.206 2.944-1.662-.374-.573 1.753-1.062 1.379-1.636-.375-.576-5.357.57-5.731-.005-.375-.575 2.214-1.171 1.839-1.746-.375-.577-1.858-.236-2.233-.812-.375-.575 1.182-1.676.151-1.602-1.023.072-2.667.692-2.766 1.301-.099.61.792.661.693 1.27-.1.608-.792.568-.892 1.177-.1.607 4.929.897 4.83 1.506m58.043 11.092c-.024-.179-.129-.281-.622-.229-.378.039.001.116.622.229m40.157 7.616c-.032.612-.799.597-.831 1.209-.015.296 1.309.474 2.671.648-.04-.058-.09-.121-.153-.192-.492-.546 4.271-2.063 3.779-2.609-.492-.546-3.117.289-3.608-.258-.493-.546.163-2.19-.858-2.061-1.009.127-3.643 1.374-3.675 1.986-.032.613 2.708.664 2.675 1.277m41.318-8.207c-.019-.655-.113-1.264-.674-1.244-.515.02.024.595.674 1.244m34.519 9.461c-.075.326.79.551 1.593.784-.133-.08-.28-.176-.479-.331-.408-.317.259-.794.603-1.224-.058.031-.127.058-.226.073-1 .163-2.935-1.286-3.077-.676-.14.611 1.728.764 1.586 1.374m1.776-1.385c-.433-.336.072.045.094.365.053-.135.041-.26-.094-.365M437.75 92.893c-.51-.539-.427.799-1.444.929-.218.029-.349-.004-.427-.061-.124.262-.297.375-.401.7 1.123-.593 2.574-1.248 2.272-1.568m91.901 3.01c.445-.193.743-.354.695-.445-.399-.759-.513-.812-.998-.268-.372.417.133.459.303.713m39.422 15.186c.047-.351.017-.651-.361-.745-.425-.105-.108.251.361.745m81.145 13.092c-.181-.318.017-.534-.455-.927-.603-.502-1.776-.938-2.785-.796-.907.128 2.627 1.088 3.24 1.723m29.243-1.494c.255-1.076 1.555-3.068.792-2.908-.958.201-2.543 1.798-2.543 2.402 0 .237.793.382 1.751.506m3.167 1.906c0 .373.817.515 1.438.713 1.039-.883 3.421-2.243 2.934-2.583-.664-.464-.738-.426-1.402-.89-.424-.296-2.493.563-4.115 1.108.752.113 1.319.246 1.319.447 0 .602-.174.602-.174 1.205m176.871-21.015c-.336-.037-.409-.181-.396-.292-.015.028-.023.048-.048.089-.067.109-.195.178-.342.232.289-.02.572-.028.786-.029m21.786 5.673c.685-.478 1.231-.913.977-1.106-.449-.342-.605.288-1.017.739.044.03.07.081.07.158 0 .079-.011.147-.03.209m23.104-3.746c1.463-.657 3.185-1.366 2.91-1.679-.487-.554-2.182 1.213-3.234 1.223-1.003.009-.636-1.11-.977-.548-.203.333.647.669 1.301 1.004m209.378 1.966c.124-.568.871-1.463.559-1.634-.872-.477-.899.67-1.053 1.033-.05.12.232.342.494.601m27.091-.731c.491-.393 1.14-.803.827-1.11-.54-.527.081-.752-.458-1.278-.539-.528-.756-2.259-1.783-2.164-1.002.092-.833 1.735-1.009 2.329-.177.593-.93.514-1.106 1.107-.113.381 2.026.746 3.529 1.116m72.299.231c-.33-.408-1.066-.367-1.281-.9-.241-.598 1.929-2.861.894-2.875-1.033-.013-1.291 1.926-1.563 2.518-.214.466 1.389.833 1.95 1.257m243.281 1.753c1.236-.395 3.259-.777 3.117-1.191-.138-.403-1.765-.347-2.906-.442-1.947-.041-4.373-.189-4.501.179-.165.471 2.986.969 4.29 1.454m.48-4.61c-1.043.001-3.823.108-4.035.715-.127.363 2.196.803 4.035 1.227 1.22-.347 2.789-.689 2.663-1.055-.208-.606-1.62-.887-2.663-.887M-399.964-84.892c-.014-.012-.026-.021-.04-.034h1862.893v196.631c-.415-.175-.948-.256-1.082-.65-.208-.608-1.858-.408-2.066-1.015-.15-.438-2.178-.321-3.37-.45-.424.144-.921.235-1.048.598-.211.606 1.225.783 1.014 1.388-.211.605 1.252.785 1.041 1.39-.211.605-6.211-.135-6.423.471-.211.605 2.426.93 2.214 1.536-.211.605 2.881.986 2.669 1.591-.211.606-4.746.046-4.957.652-.211.605 2.052.884 1.841 1.489-.212.605 1.171.775.96 1.381-.186.531-3.515.188-4.463.507-.621-.046-1.303-.048-1.529-.379-.397-.58 2.02-1.164 1.623-1.744-.397-.58 1.539-1.048 1.142-1.628-.397-.58-2.528-.066-2.926-.646-.396-.579-2.008-.189-2.405-.769-.395-.578 2.967-1.391 2.57-1.969-.396-.58-6.28.842-6.676.262-.398-.579-.778-.488-1.174-1.068-.397-.579 6.339-2.206 5.941-2.785-.395-.58-4.799.484-5.195-.096-.397-.579 1.22-.969.823-1.548-.395-.579-1.902-.216-2.299-.795-.395-.579-.746-.494-1.141-1.074-.397-.579 3.028-1.406 2.631-1.986-.395-.578 1.048-.928.653-1.506-.396-.578-6.521.902-6.916.323-.397-.579 3.638-1.553 3.241-2.132-.395-.579-2.26-.129-2.656-.708-.396-.577.415-3.576-.628-3.506-1.036.069.213 2.818.074 3.432-.14.614.135.635 0 1.25-.139.613-2.268.442-2.407 1.055-.139.613 5.268 1.045 5.129 1.658-.138.613-2.589.416-2.728 1.03-.138.612-1.175.529-1.314 1.14-.139.612-3.076.377-3.215.989-.139.611 5.938 1.097 5.799 1.71-.139.612-6.856.075-6.994.687-.138.611 2.383.814 2.245 1.425-.139.612 4.449.979 4.311 1.592-.138.611-5.53.18-5.669.792-.138.612 2.3.807 2.162 1.419-.139.611-3.589.336-3.728.947-.139.612 5.89 1.094 5.751 1.706-.138.611-6.71.086-6.849.697-.137.611 2.888.853 2.749 1.463-.138.612-1.834.477-1.972 1.088-.138.611.587.669.448 1.281-.138.611-.355.593-.492 1.203-.138.611-1.075.536-1.213 1.147-.139.61 5.569 1.066 5.432 1.677-.139.611-5.12.213-5.258.825-.138.611 3.635.913 3.497 1.523-.138.611-.218.604-.357 1.214-.137.611-3.516.341-3.655.953-.138.612-1.849.475-1.987 1.086-.139.61 2.31.807 2.172 1.418-.139.611 1.82.768 1.681 1.379-.138.611 1.148.714 1.009 1.326-.138.611.749.682.611 1.293-.138.611-7.041.06-7.178.67-.139.611 7.152 1.194 7.013 1.806-.138.611-7.803-.002-7.942.609-.106.469.243.61.351.926-2.157.05-6.038.53-6.232.09-.265-.599 1.612-.892 1.348-1.491-.265-.598-.665-.536-.93-1.134-.265-.599 3.63-1.206 3.365-1.805-.264-.599-.917-.497-1.18-1.095-.265-.598-2.715-.216-2.98-.815-.264-.598 2.204-.983 1.94-1.581-.265-.599-2.124-.308-2.388-.906-.265-.599-.403-.577-.668-1.175-.264-.597-2.941-.18-3.204-.778-.265-.597 3.789-1.23 3.524-1.828-.264-.597-1.519-.402-1.784-1-.264-.597-1.473-.408-1.736-1.006-.265-.596 2.421-1.015 2.157-1.612-.265-.598 2.594-1.044 2.329-1.64-.264-.599-4.892.124-5.155-.475-.265-.597 2.621-1.048 2.357-1.645-.263-.596-2.47-.253-2.734-.848-.264-.597-3.136-.149-3.4-.744-.263-.598 3.108-1.124 2.844-1.722-.264-.598-3.698-.063-3.962-.66-.264-.598 2.641-1.051 2.377-1.649-.264-.598-.728-.525-.993-1.124-.265-.597-3.444-.101-3.709-.699-.264-.598 3.75-1.224 3.486-1.821-.264-.598-3.294-.124-3.558-.722-.264-.598 4.949-1.411 4.684-2.01-.264-.597-1.761-.364-2.025-.962-.265-.597-1.929-.337-2.193-.934-.264-.598 1.238-.832.974-1.43-.264-.596-.741-.522-1.006-1.12-.263-.597-2.462-.254-2.725-.851-.265-.598.148-.663-.116-1.26-.264-.598 4.242-1.301 3.978-1.9-.265-.596-1.5-.404-1.764-1.001-.264-.597-3.876-.034-4.139-.631-.264-.596 2.362-2.484 1.324-2.5-1.031-.016-3.03 1.15-3.315 1.739-.287.589-.838.494-1.123 1.083-.287.588-.519.548-.804 1.136-.285.586 3.56 1.246 3.275 1.834-.285.587-.323.581-.609 1.167-.284.587-.442.561-.726 1.148-.285.586-1.891.31-2.176.896-.285.587.329.693.043 1.28-.284.587-2.343.233-2.628.82-.285.587 3.631 1.258 3.346 1.845-.285.587-2.822.152-3.107.739-.284.587-2.482.21-2.766.797-.285.587-.078.622-.363 1.209-.285.586 6.121 1.683 5.836 2.27-.284.587.602.739.318 1.326-.285.586-6.474-.475-6.76.111-.284.586 1.875.956 1.591 1.542-.285.586.182.666-.103 1.252-.284.586-1.576.365-1.861.951-.284.586-2.166.263-2.45.849-.284.585 4.612 1.423 4.328 2.009-.284.585-1.953.299-2.236.885-.285.586-.606.531-.89 1.117-.285.586-1.676.348-1.961.934-.283.584 3.433 1.222 3.149 1.807-.283.584-3.199.084-3.483.669-.285.585 3.123 1.169 2.838 1.755-.284.586-5.318-.277-5.602.309-.284.586 4.113 1.34 3.829 1.926-.285.587-3.737-.005-4.021.582-.285.585-.495.55-.779 1.136-.284.585 4.39 1.386 4.105 1.972-.284.585-7.263-.611-7.548-.025-.285.586 6.356 1.724 6.071 2.31-.284.586-1.639.354-1.923.941-.284.585 1.773.938 1.488 1.523-.279.576-6.696-.511-7.188.006-.763.06-1.452.082-1.634-.155-.426-.555 0-.67-.424-1.225-.425-.555-2.818.093-3.244-.463-.426-.554 2.384-1.315 1.958-1.87-.425-.554 1.386-1.045.961-1.598-.426-.556-4.333.502-4.759-.052-.424-.554-.07-.65-.495-1.202-.425-.555-.505-.534-.93-1.087-.425-.556.541-.817.115-1.372-.426-.554-1.784-.186-2.209-.741-.426-.554.577-.826.151-1.38-.425-.554-1.749-.196-2.174-.749-.424-.555 4.694-1.942 4.269-2.496-.425-.554-.01-.667-.435-1.22-.425-.554-5.342.778-5.767.224-.425-.553 1.241-1.005.816-1.559-.425-.554.497-.804.072-1.358-.424-.553 1.912-1.186 1.488-1.739-.424-.554-5.612.852-6.036.299-.424-.554 4.469-1.879 4.045-2.433-.425-.553-4.907.66-5.332.107-.424-.554.768-.877.343-1.431-.424-.553.648-.843.223-1.395-.423-.552 1.734-1.137 1.31-1.689-.422-.553-2.262-.055-2.685-.606-.424-.553-.949-.41-1.373-.963-.425-.554 1.794-1.155 1.369-1.708-.425-.555-6.252 1.024-6.677.469-.425-.553 5.021-2.028 4.596-2.582-.425-.553-1.937-.143-2.36-.697-.425-.554.303-.751-.121-1.304-.424-.554-.735-.47-1.159-1.024-.426-.554-2.089-.103-2.513-.657-.425-.554.802-.886.378-1.44-.425-.552 2.348-1.303 1.924-1.857-.424-.553-.299-.587-.723-1.141-.425-.552-4.656.593-5.08.039-.425-.553-.082-.646-.507-1.2-.425-.553.484-.8.059-1.353-.424-.554-2.833.098-3.257-.454-.424-.553 4.568-1.906 4.143-2.458-.424-.554-.796-.453-1.221-1.006-.423-.553-5.827.911-6.251.357-.423-.553.536-.812.112-1.366-.425-.554.665-.849.24-1.402-.425-.554.081-.691-.344-1.245-.425-.553-2.089-.102-2.513-.656-.424-.553 2.543-1.356 2.119-1.909-.425-.553 1.892-1.181 1.468-1.733-.423-.553-5.796.902-6.22.349-.424-.552 1.38-1.041.956-1.594-.424-.552-3.67.327-4.094-.226-.425-.553.678-.852.254-1.404-.425-.553 2.559-2.593 1.535-2.584-1.03.009-1.463 1.107-1.878 1.668-.415.561-.293.592-.708 1.153-.414.56-.424.558-.838 1.117-.413.559 4.038 1.722 3.625 2.28-.414.56-5.661-.811-6.075-.253-.413.559 4.2 1.765 3.787 2.324-.413.557-.566.517-.979 1.076-.413.558-3.644-.286-4.057.273-.412.557-2.608-.017-3.02.54-.414.559.373.764-.041 1.323-.414.558-1.851.182-2.264.741-.413.558 2.472 1.312 2.058 1.87-.413.559-1.338.316-1.752.875-.413.558 4.633 1.877 4.221 2.435-.414.558-1.288.33-1.701.888-.413.558.489.793.076 1.351-.412.557-5.813-.854-6.225-.296-.413.557 2.32 1.271 1.908 1.83-.414.558-5.065-.658-5.478-.1-.412.557 4.243 1.774 3.831 2.33-.412.558-4.466-.502-4.879.055-.412.557.768.865.356 1.423-.413.558 3.548 1.593 3.135 2.15-.413.558-5.331-.727-5.744-.17-.412.557.032.672-.379 1.229-.413.557 3.184 1.496 2.773 2.053-.412.555-.114.633-.525 1.189-.412.557-.633.499-1.044 1.055-.413.557 1.93 1.171 1.518 1.728-.407.55-5.521-.776-6.062-.28-.075-.069-.164-.147-.287-.245-.612-.482-1.408-.127-2.018-.61-.61-.482-.255-.64-.865-1.121-.611-.483-4.846 1.41-5.456.927-.611-.482.01-.758-.604-1.239-.609-.481-.207-.66-.816-1.142-.61-.482.895-1.155.285-1.636-.607-.481-2.151.209-2.76-.272-.607-.479 3.399-2.27 2.79-2.751-.609-.481-2.035.155-2.644-.326-.61-.481-2.521.373-3.13-.108-.609-.482-.014-3.218-1.007-3.097-.987.119-3.285 1.847-3.512 2.43-.227.583 2.525.962 2.298 1.545-.226.582 3.071 1.035 2.845 1.618-.227.582-3.816.088-4.043.67-.227.582-1.02.473-1.246 1.055-.227.581.588.694.361 1.275-.226.58-2.067.327-2.293.908-.227.581 1.144.769.917 1.351-.226.582.917.739.691 1.321-.226.581-3.438.139-3.664.721-.227.581 1.158.771.931 1.353-.225.581-1.221.444-1.446 1.025-.095.243.706.501 1.651.763-.759.143-1.517.285-1.835.034-.635-.503.378-.956-.257-1.458s-3.815.92-4.45.418c-.634-.502-1.253-.225-1.887-.727-.635-.502 1.184-1.316.549-1.817-.632-.501-1.699-.024-2.332-.525-.635-.502.807-1.147.172-1.648-.633-.5-2.121.165-2.754-.335-.632-.5 2.141-1.739 1.508-2.239-.634-.501-4.018 1.012-4.653.51-.634-.501 3.103-2.171 2.469-2.672-.634-.501-1.712-.019-2.347-.52-.633-.5.759-1.122.125-1.623-.634-.501.469-.995-.165-1.496s-4.866 1.391-5.499.891c-.634-.501.343-.936-.29-1.436-.634-.501-.7-.472-1.333-.973-.635-.5 2.837-2.052 2.203-2.553-.448-.353-1.327.768-2.167 1.498.015.028.019.063 0 .116-.029.08-.162.135-.364.174-.219.154-.43.261-.624.284-.354.043-.313-.072-.123-.215-1.774.064-5.053-.231-5.214.217-.216.602 2.099.896 1.883 1.498-.216.603-2.276.341-2.493.944-.215.602 6.854 1.499 6.637 2.1-.216.602-6.246-.163-6.462.439-.216.6 4.019 1.138 3.803 1.738-.216.603-5.3-.042-5.516.56-.216.601.798.729.582 1.332-.217.601 3.651 1.092 3.435 1.692-.216.603-1.822.399-2.038 1-.216.602-.282.593-.498 1.194-.217.602-3.742.155-3.958.756-.216.602-.095.617-.311 1.218-.216.602 5.598 1.338 5.382 1.94-.216.601-3.784.148-4 .749-.216.6.098.64-.118 1.241-.216.6 2.315.922 2.099 1.522-.215.602-1.982.377-2.198.979-.215.599 1.549.823 1.334 1.424-.216.599 1.642.835 1.426 1.435-.215.6-1.137.483-1.353 1.083-.215.601-.02.626-.236 1.227-.216.6-1.53.433-1.746 1.034-.215.599-2.253.342-2.468.941-.216.599-2.428.318-2.644.917-.216.601.323.669.107 1.27-.215.6 3.088 1.019 2.872 1.62-.216.6-.473.568-.689 1.169-.216.6.398.679.183 1.28-.215.601-2.04.369-2.256.97-.214.6 1.381.803 1.166 1.403-.216.601.131.645-.084 1.245-.215.601.267.662.051 1.263-.216.601-3.574.175-3.79.775-.216.601 4.515 1.201 4.299 1.801-.215.601-7.108-.273-7.324.327-.215.6.215.655 0 1.255-.216.601 5.113 1.276 4.897 1.876-.216.601-5.68-.092-5.896.509-.215.601 3.482 1.069 3.266 1.67-.215.6-1.223.473-1.439 1.073-.216.6 3.04 1.013 2.824 1.612-.216.601-6.556-.204-6.772.397-.215.6 5.649 1.344 5.434 1.943-.216.601-4.482.06-4.698.659-.215.601 1.542.824 1.327 1.424-.162.449 0 .589.01.882-1.15-.26-4.856.192-5.066-.328-.242-.601.772-.745.53-1.346-.241-.6 4.82-1.32 4.578-1.921-.242-.6-4.957.071-5.199-.53-.241-.6 3.293-1.102 3.051-1.702-.242-.6 1.94-.909 1.699-1.509-.241-.599-.859-.512-1.101-1.112-.241-.6-4.616.022-4.858-.578-.241-.6 5.013-1.347 4.772-1.947-.241-.6-7.533.437-7.775-.163-.241-.599 5.961-1.482 5.72-2.081-.242-.6-3.976-.069-4.218-.669-.24-.599.592-.717.35-1.317-.241-.6 2.902-1.047 2.661-1.646-.242-.599-2.184-.323-2.425-.922-.241-.599 1.535-.852 1.294-1.451-.241-.598-3.099-.193-3.34-.792-.241-.599-1.482-.422-1.724-1.022-.24-.599-1.297-.448-1.537-1.047-.241-.598 5.96-1.479 5.72-2.078-.241-.599-4.366-.012-4.607-.61-.242-.6-.588-.55-.83-1.15-.241-.598-1.114-.474-1.355-1.073-.24-.598-.92-.501-1.161-1.099-.241-.597 3.463-1.124 3.222-1.721-.241-.6-1.463-.426-1.704-1.025-.241-.599 1.153-.797.911-1.396-.241-.599-.567-.553-.808-1.152-.241-.599-1.509-.419-1.75-1.018-.241-.599-1.274-.452-1.515-1.051-.241-.599.396-.689.154-1.288-.241-.599-1.995-.35-2.236-.948-.241-.6-1.628-.403-1.869-1.001-.241-.6 5.742-1.45 5.501-2.05-.241-.599-4.895.063-5.136-.535-.241-.599.884-.759.643-1.358-.241-.598.764-.741.523-1.339-.24-.599 1.752-.882 1.511-1.481-.241-.6-3.408-.149-3.649-.748-.242-.6.152-.655-.089-1.254s3.995-1.201 3.754-1.8c-.242-.598-6.12.238-6.362-.36-.197-.489 1.117-.775 1.478-1.189-.918.355-5.528-.347-5.778.199-.272.591 6.982 1.767 6.71 2.358-.27.591-.335.58-.606 1.171-.271.59-5.913-.325-6.185.265-.27.589 2.602 1.054 2.331 1.643-.271.591-2.773.185-3.044.776-.271.589 2.047.965 1.776 1.555-.271.59-3.479.071-3.749.66-.272.59 2.371 1.019 2.1 1.609-.271.59-1.855.333-2.126.923-.271.59 3.603 1.217 3.332 1.808-.271.589-5.988-.338-6.258.251-.271.59 1.577.89 1.306 1.48-.27.59.124.653-.146 1.243-.271.589.179.661-.092 1.25-.271.59-3.3.099-3.57.687-.271.59 2.54 1.046 2.268 1.636-.269.588 3.545 1.207 3.275 1.796-.271.588-.557.541-.826 1.13-.271.589-3.268.102-3.538.691-.271.589-1.144.448-1.416 1.037-.27.589 2.813 1.089 2.542 1.678-.27.588-2.646.202-2.917.79-.269.588 4.121 1.3 3.851 1.888-.27.589-2.977.15-3.248.739-.27.589-.739.513-1.01 1.102-.27.59-3.702.033-3.972.622-.272.59 2.548 1.047 2.278 1.637-.271.588-.113.614-.384 1.204-.27.588-.652.526-.923 1.115-.27.589 2.008.959 1.738 1.548-.271.589-1.558.38-1.83.969-.27.589-2.585.214-2.856.803-.27.589 1.05.803.779 1.392-.269.589-1.735.351-2.006.94-.27.588 3.498 1.199 3.227 1.788-.27.589-5.212-.213-5.482.376-.272.59 2.35 1.015 2.08 1.604-.271.59.62.61-.4.684-1.037.076-.015-.146-.558-.676-.543-.531-.277-.626-.82-1.158-.542-.529-4.081.75-4.623.22-.54-.527-.3-.614-.84-1.142-.542-.53 5.082-2.562 4.54-3.09-.541-.53-4.931 1.057-5.471.529-.54-.527-.609-.503-1.149-1.031-.541-.529-1.953-.018-2.494-.546-.54-.528 1.66-1.322 1.121-1.849-.54-.528-.965-.375-1.506-.903s-2.412.148-2.953-.381c-.54-.527.622-.947.082-1.476-.541-.528 1.713-1.342 1.173-1.87s-1.034-.349-1.574-.877-1.597-.146-2.138-.674c-.54-.528 3.034-1.82 2.494-2.347-.539-.527-.774-.443-1.314-.97-.54-.527-4.33.842-4.87.315-.54-.529.299-.831-.241-1.359-.539-.527-1.562-.158-2.101-.684-.539-.528 2.829-1.745 2.29-2.271-.539-.527-2.926.335-3.465-.192-.54-.528-1.381-.224-1.921-.751-.54-.528 3.846-2.113 3.307-2.64-.539-.526-6.336 1.568-6.875 1.042-.538-.526 5.394-2.67 4.855-3.195-.538-.527-4.502.906-5.041.381-.538-.527 3.227-1.887 2.688-2.413-.539-.528-3.018.369-3.558-.159-.54-.527-1.331-.241-1.871-.769-.539-.528-2.952.345-3.492-.183-.539-.527.282-.824-.257-1.35-.54-.528 4.296-2.275 3.757-2.802-.54-.527-3.277.462-3.817-.066s2.175-1.508 1.634-2.036c-.54-.527-3.397.506-3.937-.021-.539-.528-2.691.251-3.231-.277-.539-.526-.291-.616-.831-1.143-.539-.526.941-1.062.402-1.589-.54-.527-1.11-.321-1.65-.849-.54-.527 2.411-1.593 1.871-2.121-.54-.526-.918-.389-1.458-.917-.539-.526.548-.919.01-1.446-.352-.345-2.626.314-4.308.663-.162.543-.157.566-.327 1.141-.177.592-4.459.141-4.636.733-.176.592 1.58.777 1.404 1.368-.176.591-5.089.075-5.265.664-.175.592 4.503 1.084 4.327 1.676-.176.592-.521.556-.698 1.148-.175.59.863.7.686 1.292-.176.59-.949.509-1.125 1.101-.176.592 2.155.837 1.979 1.428-.175.592-1.182.485-1.358 1.077-.176.591.635.676.458 1.267-.176.591-2.605.337-2.781.927-.176.591 1.253.742 1.077 1.332-.137.46-3.6.203-5.212.343-.01-.011-.01-.023-.018-.034-.328-.313.357-1.044-.029-1.41-.341-.324-.875-.604-1.254-.961-.347-.329-1.068-.536-1.443-.887-.355-.332 1.013-1.33.639-1.678-.36-.334-2.899.152-3.272-.193-.363-.335-3.061.227-3.434-.114-.368-.336 4.629-2.758 4.255-3.096-.372-.337-1.737-.295-2.112-.63-.377-.337-5.389 1.174-5.765.843-.382-.338 5.139-3.054 4.761-3.381-.39-.338-.948-.622-1.329-.945-.397-.339-4.623.936-5.007.618-.409-.339.239-1.109-.148-1.42-.426-.341-.203-.955-.596-1.253-.38-.289-1.363-.255-1.911-.397.039.105.057.211.012.313-.152.345-4.076.165-4.272.612-.161.367 3.863 1.42 3.676 1.844-.167.378-2.082.505-2.266.92-.17.383.199.867.017 1.277-.172.387-4.827.083-5.008.489-.174.39.287.887.107 1.292-.174.392.895.985.717 1.387-.175.394-3.918.232-4.095.631-.177.397 1.822 1.137 1.645 1.535-.177.398-1.019.69-1.195 1.085-.178.4 2.371 1.226 2.196 1.62-.179.401 2.531 1.253 2.357 1.644-.18.403-6.858-.222-7.031.167-.181.406 4.897 1.631 4.724 2.017-.183.41-5.239.039-5.409.421-.186.416 1.977 1.182 1.81 1.557-.191.428-1.343.672-1.506 1.036-.201.453-1.275.711-1.425 1.048-.336.753 1.22 3.59.255 3.367-.957-.22-.176-1.865-.93-2.279-.755-.414 2.059-2.225 1.304-2.639-.752-.413-4.902 2.258-5.655 1.845-.752-.412 0-.896-.751-1.308-.753-.414-1.595.129-2.347-.284-.751-.412 3.807-3.345 3.055-3.757-.75-.413-3.125 1.116-3.876.704-.751-.412-.019-.884-.771-1.296-.749-.411-2.745.874-3.494.463-.749-.411-2.044.422-2.794.01-.751-.412.069-.94-.682-1.352-.751-.411 1.605-1.928.855-2.339-.751-.412 1.001-1.541.251-1.953-.75-.411-2.358.623-3.108.212-.751-.412.458-1.192-.293-1.603-.75-.412-4.227 1.826-4.978 1.415-.749-.411 1.076-1.587.327-1.998-.722-.395-1.969.365-2.731.062.397.224 1.064.684.451.797-.975.179-1.287-1.619-1.514-1.027-.228.592.804.732.576 1.323-.227.591 1.263.793 1.035 1.384-.226.591-5.97-.188-6.196.403-.228.59 3.198 1.054 2.972 1.645-.227.59-1.013.484-1.24 1.073-.225.59-.093.608-.319 1.197-.227.59-3.194.187-3.421.778-.227.59 1.584.836 1.357 1.426-.226.59-2.141.33-2.368.92-.226.59 3.858 1.143 3.631 1.733-.226.59-1.59.405-1.816.995-.227.59.029.624-.198 1.214-.226.59-.678.528-.904 1.117-.226.591-.15.601-.377 1.191-.226.59-1.123.467-1.348 1.056-.227.59 3.74 1.127 3.514 1.716-.226.59-3.64.127-3.867.716-.226.59 1.356.804 1.13 1.394-.148.383-.622.461-.997.631.088-.231.052-.448-.343-.447-.41.001-.342.201-.133.406-.896-.091-2.241.031-2.467-.381-.321-.586-1.52-.354-1.84-.939-.322-.586.822-.808.501-1.393-.321-.585 2.387-1.109 2.066-1.695-.321-.585-3.119-.043-3.44-.627-.321-.584 1.704-.976 1.383-1.56-.321-.584-4.051.137-4.372-.448-.321-.584 3.167-1.259 2.847-1.844-.32-.585-.582-.535-.902-1.119-.322-.584-.586-.534-.907-1.119-.321-.584-2.609-.141-2.929-.725-.321-.585.01-.649-.314-1.233-.32-.584.76-.794.44-1.378-.322-.584 2.921-1.212 2.599-1.796-.32-.584-.451-.559-.771-1.143-.32-.583-4.826.289-5.146-.294-.32-.585 1.602-.957 1.283-1.541-.322-.584.823-.806.502-1.39-.32-.584 1.256-.888.936-1.471-.319-.583-5.079.338-5.398-.245-.321-.583 5.69-1.748 5.371-2.331-.322-.584-6.527.618-6.847.034-.319-.584 4.301-1.479 3.98-2.063-.319-.582-.457-.555-.776-1.138-.319-.583-.427-.561-.746-1.144-.319-.582-2.917-.079-3.236-.661-.321-.584-.529-.543-.849-1.127-.319-.584 1.726-.981 1.406-1.564-.32-.585-1.387-.378-1.709-.962-.319-.584-.665-.516-.985-1.1-.32-.584 2.163-1.065 1.843-1.649-.32-.583-1.498-.951-2.528-.899-1.025.051-.525.67-.66 1.276-.135.607-1.58.494-1.715 1.1-.134.605-1.61.489-1.745 1.094-.135.605 4.879 1 4.744 1.605-.134.606-4.015.3-4.15.906-.135.604 3.603.898 3.468 1.502-.134.604-4.944.225-5.078.829-.135.605-.472.578-.607 1.183-.135.605 4.574.975 4.44 1.579-.135.605-1.356.509-1.491 1.114-.134.604-.563.57-.698 1.175-.135.604-2.342.43-2.476 1.034-.135.605-1.354.509-1.489 1.114-.134.603 6.276 1.108 6.141 1.712-.134.604-2.599.41-2.733 1.014-.134.604 2.678.826 2.545 1.429-.135.604-4.648.248-4.783.852-.134.604 3.107.859 2.972 1.463-.135.604-3.726.321-3.86.925-.134.603-1.976.458-2.11 1.061-.135.603 2.169.784 2.035 1.387-.134.603-2.394.425-2.528 1.028-.135.604 6.987 1.165 6.853 1.768-.134.604-4.183.286-4.318.889-.134.603-1.291.511-1.425 1.113-.134.603 4.44.962 4.305 1.565-.134.603-.566.569-.701 1.173-.135.603-2.699.401-2.834 1.005-.135.604.664.667.529 1.27-.134.604-2.28.436-2.415 1.039-.135.604 5.11 1.017 4.975 1.62-.135.604-4.623.25-4.757.854-.135.603-2.032.454-2.167 1.056-.134.605 5.341 1.036 5.206 1.639-.135.604-.018.613-.152 1.217-.135.603-1.668.482-1.802 1.086-.135.603-3.021.376-3.154.979-.135.603 5.157 1.02 5.022 1.622-.135.604-3.686.325-3.821.928-.135.604-1.83.47-1.965 1.073-.134.605-1.438.502-1.571 1.106-.135.602.039.616-.096 1.22-.134.602.251.632.117 1.236-.135.602 5.91 1.078 5.776 1.682-.135.602-1.395.502-1.53 1.106-.134.602-3.749.318-3.884.922-.133.602 1.32.718 1.186 1.321-.135.604-2.337.43-2.472 1.034-.133.603 2.043.775 1.909 1.377-.134.604-.46.577-.595 1.181-.134.602.768.674.634 1.276-.134.603-2.697.401-2.831 1.003-.134.603 1.619.741 1.485 1.343-.135.603.106.622-.027 1.225-.135.602.387.264-.63.324-1.028.059-3.002.914-3.367.34-.364-.574-.476-.548-.84-1.122-.365-.573 2.173-1.142 1.81-1.715-.363-.573.317-.725-.047-1.298-.364-.572-.699-.497-1.063-1.069-.363-.573-2.86-.013-3.223-.584-.363-.572 4.675-1.702 4.313-2.273-.364-.572-3.158.055-3.521-.517-.363-.573 1.479-.986 1.115-1.557-.363-.572-3.987.24-4.35-.331-.363-.572 5.306-1.844 4.943-2.416-.363-.571-1.333-.355-1.695-.926-.363-.572-.19-.611-.553-1.183-.363-.571-6.163.73-6.526.159-.363-.573 2.429-1.199 2.066-1.771-.362-.571-2.481-.096-2.844-.667-.363-.571 3.141-1.356 2.779-1.928-.364-.571 1.033-.883.67-1.456-.364-.571-3.712.18-4.076-.391-.362-.571-2.741-.037-3.103-.608-.362-.57-.54-.53-.902-1.1-.363-.571 2.232-1.153 1.87-1.723-.364-.572-.438-.556-.8-1.127-.363-.57-2.953.01-3.315-.56-.363-.571.697-.808.335-1.378-.362-.57 2.664-1.248 2.302-1.818-.362-.569 1.158-.91.797-1.479-.362-.572-2.079-.187-2.441-.757-.363-.571-3.847.21-4.209-.361-.364-.572 2.656-1.248 2.294-1.821-.364-.57.57-.779.207-1.35-.363-.572-3.839.209-4.202-.363-.363-.57-.486-.543-.848-1.113-.363-.571-1.138-.397-1.5-.969-.363-.571 4.89-1.749 4.528-2.32-.363-.571-5.554.593-5.916.023-.362-.572 6.387-2.085 6.025-2.656-.363-.57-1.942-.217-2.304-.787-.362-.57.627-.793.265-1.363-.363-.571-5.824.653-6.187.082-.362-.57 2.242-1.154 1.879-1.726-.362-.57-.526-.534-.889-1.104-.362-.57 2.685-1.254 2.322-1.824-.362-.571-.073-.635-.435-1.205-.361-.571-4.593.377-4.955-.193-.362-.57-.904-.449-1.267-1.019-.362-.572 4.954-1.763 4.592-2.334-.362-.572-.553-.529-.915-1.1-.362-.571-2.807-.022-3.17-.594-.361-.57 1.92-1.082 1.558-1.652-.362-.57-2.959.455-3.984.488-1.032.034-2.133-.585-2.414.007-.281.591.463.716.183 1.308-.28.589 1.434.877 1.154 1.467-.28.59.004.638-.276 1.228s.896.787.617 1.378c-.28.589-3.8-.001-4.079.589-.279.588-1.393.401-1.672.99-.279.59-1.518.383-1.797.972-.28.59 5.595 1.574 5.315 2.164-.28.589-1.334.413-1.614 1.002-.28.59.802.77.522 1.36-.279.589-.298.586-.577 1.176-.281.589-4.768-.163-5.047.427-.28.587 2.225 1.007 1.946 1.596-.279.59-1.416.4-1.696.989-.06.126-.18.21-.323.275-.354-.015-.67-.067-.848-.254-.511-.535-.502-.538-1.013-1.073-.51-.534 1.152-1.094.642-1.628-.51-.534-2.104.002-2.614-.532-.509-.535-3.263.392-3.773-.142-.509-.533 3.227-1.791 2.718-2.325-.51-.534-3.587.503-4.097-.032-.508-.533 2.169-1.434 1.661-1.967-.508-.533.768-.964.259-1.498-.51-.534-2.007-.03-2.517-.564-.508-.534-2.971.295-3.48-.238-.51-.534.08-.732-.43-1.267-.508-.533 1.04-1.054.532-1.588-.509-.534 1.526-1.219 1.016-1.753-.509-.534-6.21 1.386-6.719.853-.508-.533 5.196-2.454 4.687-2.987-.509-.533-4.738.89-5.247.357-.509-.533-1.138-.321-1.647-.855-.508-.532 1.546-1.225 1.038-1.757-.508-.532-1.829-.088-2.337-.62-.508-.533 2.096-1.41 1.588-1.943-.508-.534-4.892.943-5.402.41-.508-.534 1.585-1.239 1.077-1.772-.508-.532-2.178.03-2.686-.502-.507-.531 1.662-1.262 1.155-1.794-.508-.531.214-2.109-.813-2.135-1.058-.026-.228 1.748-.864 2.25-.636.503-3.58-.812-4.216-.309-.635.502.15.853-.485 1.355-.635.5.32.927-.313 1.428-.635.502 2.078 1.714 1.443 2.216-.634.501-3.95-.981-4.584-.48-.633.5-.48.569-1.112 1.07-.635.501-.653.493-1.286.994-.633.5 3.476 2.336 2.844 2.836-.632.499-3.293-1.978-4.343-1.943-.991.034-2.937 2.373-3.564 1.915-.627-.458 4.277-2.832 3.65-3.289-.626-.457-4.485 1.413-5.111.956-.624-.456.548-1.023-.076-1.478-.626-.456-3.194.788-3.819.332s2.004-1.729 1.38-2.185c-.624-.455-.365-.58-.988-1.035-.625-.455 1.355-1.413.73-1.869-.623-.454-3.618.996-4.241.542-.622-.454 2.84-2.131 2.217-2.585-.624-.455-3.372-1.274-4.335-1.14-1.009.14-1.246 1.748-1.563 2.334-.319.585-.381.574-.699 1.16-.318.586 1.661.965 1.343 1.549-.317.585 1.448.923 1.13 1.508-.317.585-1.637.332-1.955.918-.317.584-3.277.017-3.595.602-.316.583 2.193 1.063 1.876 1.647-.317.584.939.825.621 1.409-.317.585-3.538-.032-3.855.553-.316.584 1.316.897 1 1.481-.317.585 1.025.841.708 1.426-.316.584-1.573.344-1.89.928-.317.584 2.416 1.108 2.1 1.693-.316.583-1.117.43-1.434 1.013-.317.585-1.627 1.467-2.658 1.503-1.055.037 1.588-1.961 1.099-2.516-.49-.556-3.836.484-4.325-.072-.49-.555 4.255-2.03 3.766-2.586-.487-.553-5.928 1.139-6.416.584-.488-.553 2.001-1.328 1.513-1.883-.488-.553.088-.732-.4-1.287-.487-.552-2.778.16-3.265-.393-.488-.555.833-.965.345-1.52-.487-.551 1.796-1.261 1.31-1.814-.487-.554-3.675.437-4.162-.116-.488-.554-3.256.306-3.744-.247-.101-.115.075-.285.398-.483-1.835-.184-4.201-.543-4.413-.193-.34.558 4.377 1.57 4.037 2.13-.34.559-5.249-.493-5.589.066-.339.559 4.886 1.68 4.546 2.239-.338.559 1.603.975 1.264 1.534-.34.559-7.3-.934-7.641-.374-.337.557.551.748.212 1.305-.34.559 4.49 1.595 4.15 2.153-.34.56-2.35.128-2.69.688-.34.559 2.633 1.196 2.294 1.755-.337.555-4.097-.246-4.491.285-.063-.037-.181-.061-.406-.04-.995.09 2.43-.428 1.811-.899-.618-.471-.203-.664-.821-1.135-.618-.471-1.184-.209-1.801-.68-.616-.47-2.386.351-3.003-.119-.617-.471-1.918.132-2.535-.338-.616-.47.518-.996-.098-1.466-.617-.468-3.602.915-4.217.446-.617-.47-.831-.371-1.448-.84-.615-.469.472-.973-.143-1.441-.614-.468-1.905.13-2.52-.339-.077-.058-.08-.139-.029-.237-1.3.211-3.103.352-3.103.743 0 .611 3.224.611 3.224 1.221 0 .61 3.867.61 3.867 1.222 0 .609-4.755.609-4.755 1.219 0 .609 3.051.609 3.051 1.218 0 .61.469.61.469 1.22s.403.61.403 1.221c0 .609-2.026.609-2.026 1.218 0 .611-.269.611-.269 1.221 0 .609 1.15.609 1.15 1.219 0 .61-4.629.61-4.629 1.22 0 .609 5.806.609 5.806 1.218 0 .332-1.566.484-2.989.652-.586-.472-4.135.38-4.525-.18-.401-.576-.018-.671-.419-1.248-.401-.575 2.167-1.208 1.766-1.783-.403-.577.485-.796.084-1.372-.403-.577-1.333-.348-1.736-.925-.401-.576-2.913.042-3.315-.534-.402-.577.784-.869.382-1.446-.402-.576-1.149-.392-1.551-.968-.402-.578.467-.791.065-1.368-.401-.576-5.066.573-5.468-.003-.401-.577 1.277-.99.875-1.567-.402-.575 4.274-1.726 3.873-2.302-.401-.576-2.111-.155-2.512-.73-.402-.576-4.208.36-4.61-.215-.401-.576 5.052-1.919 4.65-2.495-.401-.575-1.828-.224-2.23-.799-.4-.574-3.363.154-3.763-.42-.402-.575 2.8-1.364 2.4-1.939-.401-.576.183-.72-.219-1.296-.401-.575-5.384.651-5.786.076-.076-.11-.006-.194.148-.26-.48.049-.935.114-1.096.379-.354.581 2.803 1.258 2.45 1.84-.353.581-2.226.179-2.58.76-.352.581-.72.503-1.072 1.084-.353.58-2.327.157-2.68.737-.352.579 4.363 1.591 4.012 2.171-.354.58 1.081.889.728 1.469-.352.581-3.517-.098-3.87.482-.352.58-.751.495-1.103 1.075-.353.581-2.741.069-3.094.65-.353.58-.789.486-1.142 1.066-.352.58 3.849 1.482 3.496 2.062-.352.58-3.642-.125-3.994.454-.352.581 5.046 1.739 4.694 2.319-.353.58-2.376.146-2.729.726-.351.579.196.696-.157 1.275-.353.58 1.323.94.971 1.52-.353.58-5.011-.42-5.364.16-.351.579-.235.604-.588 1.183-.351.578-.916.457-1.268 1.036-.353.58-1.921.243-2.273.822-.352.58 2.511 1.194 2.159 1.774-.352.579-2.006.225-2.359.804-.351.578-.606.523-.958 1.102-.351.579 2.878 1.271 2.528 1.849-.352.578-.729 1.31-1.762 1.339-1.051.03-3.244-.124-3.733-.678-.488-.554-.738-.475-1.226-1.029-.487-.553 1.428-1.15.94-1.702-.487-.552.956-1.001.47-1.553-.487-.552 1.871-1.287 1.384-1.839-.487-.552-5.757 1.09-6.244.538-.486-.551-.015-.698-.5-1.249-.488-.552.428-.837-.058-1.388-.485-.55-1.313-.292-1.799-.842-.486-.552 3.262-1.72 2.776-2.271-.487-.552-.212-.637-.7-1.189-.486-.551-1.839-.129-2.326-.681-.486-.551.991-1.011.504-1.562-.486-.551-.545-.534-1.03-1.084-.486-.551-2.264.002-2.75-.549-.486-.551-2.638.119-3.124-.432-.485-.551-.926-.414-1.411-.964-.486-.55-1.222-.322-1.708-.873-.486-.551 5.202-2.322 4.716-2.873-.486-.551-4.89.821-5.375.271-.486-.55-1.212-.324-1.698-.873-.485-.55 3.562-1.811 3.075-2.361-.485-.551-1.46-.248-1.947-.799-.485-.549-.817-.446-1.303-.997-.485-.549-.585-2.734-1.622-2.659-1.029.074-.711 2.149-.939 2.749-.228.602-2.931.24-3.158.842-.228.601 1.961.893 1.734 1.493-.227.6.426.687.198 1.287-.226.6.933.755.705 1.355-.226.599 1.464.825 1.237 1.425-.226.598.825.738.598 1.337-.226.599-1.863.381-2.089.981-.227.6-5.42-.095-5.647.505-.226.599 6.711 1.526 6.484 2.125-.227.599-5.726-.135-5.953.465-.226.599 1.658.85 1.431 1.45-.227.6-2.612.28-2.839.88-.226.598.364.678.138 1.276-.227.6-1.296.457-1.523 1.056-.226.598.411.684.185 1.283-.227.598.688.72.462 1.318-.227.599 1.061.771.835 1.37-.227.599.018.631-.208 1.231-.227.598.428.685.202 1.283-.227.598-4.709-.001-4.935.597-.226.597 6.702 1.522 6.475 2.121-.227.599-5.332-.083-5.558.516-.226.598 3.508 1.096 3.283 1.695-.227.598 2.027.898 1.8 1.495-.225.598-5.447-.1-5.672.497-.221.584-1.249.466-1.51 1.016-.885.157-1.712.28-1.961.041-.552-.532 2.427-1.625 1.875-2.157-.551-.529.76-1.01.209-1.54-.552-.53-5.278 1.207-5.83.677-.551-.529-1.678-.115-2.229-.645-.551-.529 2.897-1.795 2.347-2.325-.552-.529-2.551.206-3.102-.324-.549-.528-.491-.55-1.041-1.078-.549-.528-1.05-.345-1.601-.874-.551-.529.172-.795-.379-1.325-.551-.528-.949-.382-1.5-.911-.551-.53-.443-.569-.994-1.098-.551-.529-2.064.026-2.614-.502-.55-.529 1.119-1.142.568-1.672-.55-.529 2.458-1.634 1.908-2.163-.55-.528-3.439.533-3.989.005-.551-.528-1.693-.109-2.242-.638-.55-.529 5.053-2.588 4.503-3.117-.549-.528-1.221-.281-1.771-.808-.549-.529-6.015 1.479-6.564.952-.549-.529 4.817-2.5 4.268-3.029-.551-.528.239-.819-.31-1.347-.55-.529-2.693 1.604-3.731 1.678-1.031.074-1.159-1.154-1.468-.565-.309.59 2.429 1.097 2.119 1.687-.308.587-5.972-.462-6.282.127-.308.587 6.746 1.895 6.437 2.483-.309.588-4.66-.219-4.969.37-.309.587-1.369.391-1.677.978-.308.586 2.269 1.064 1.96 1.651-.308.588-2.18.24-2.489.828-.309.588-2.206.236-2.515.823-.307.588 2.343 1.079 2.034 1.666-.308.588-.074.632-.382 1.22-.309.587 2.546 1.116 2.237 1.703-.308.587-.328.584-.636 1.171-.308.587-6.043-.476-6.351.11-.309.588.275.697-.034 1.284-.307.587 4.979 1.567 4.671 2.153-.308.587.107.664-.202 1.25-.307.587-3.606-.024-3.914.562-.308.587-.493.553-.802 1.14-.307.586 2.704 1.145 2.397 1.731-.308.585.557.746.25 1.332-.308.586-2.622.157-2.93.743-.13.247-1.057.232-2.108.177-.038-.103-.095-.184-.185-.228-.364-.176-.89-.03-1.429.141-.862-.034-1.564-.016-1.676.197-.009.016 0 .039 0 .058-.019-.006-.037-.01-.055-.018-.795-.384-1.946.458-2.741.074-.793-.383.498-1.326-.295-1.709-.794-.384-1.128-.14-1.922-.523-.793-.383-1.305-.009-2.099-.392-.792-.382-1.358.032-2.15-.35-.794-.383.579-1.387-.214-1.77-.791-.382-.025-.942-.816-1.324-.79-.382-2.313.731-3.104.349-.793-.382-1.329.01-2.122-.373-.793-.382-2.064.547-2.856.165-.793-.382 1.813-2.289 1.021-2.672-.792-.382.183-1.094-.609-1.477-.793-.383-3.632 1.693-4.425 1.31-.791-.381-1.61.217-2.401-.166-.792-.381 1.014-1.702.222-2.084-.792-.382-.379-1.604-1.35-1.42-1.001.189.566 1.078.242 1.671-.323.593-3.938-.103-4.261.491-.323.592 3.606 1.349 3.282 1.942-.323.592-.564.545-.887 1.138-.324.592-2.636.146-2.959.738-.323.592 4.866 1.592 4.543 2.184-.323.59-3.998-.119-4.322.472-.322.592 2.725 1.179 2.402 1.771-.323.592-2.177.234-2.5.826-.322.592 1.323.909 1 1.5-.322.592-4.266-.168-4.588.424-.323.591 2.731 1.18 2.408 1.771-.322.591-.395.577-.718 1.169-.323.591-1.782.31-2.104.901-.323.59-2.765.12-3.088.712-.322.59 5.239 1.663 4.916 2.253-.322.59-7.633-.819-7.955-.228-.322.591 4.544 2.844 3.52 2.972-1.009.126-2.917-.579-3.585-1.047-.669-.467-.315-.646-.983-1.113-.668-.466 1.158-1.389.491-1.855-.666-.466-.013-.795-.679-1.26-.667-.467-1.985.199-2.652-.266-.666-.466 2.569-2.1 1.903-2.566-.666-.465-4.177 1.31-4.842.845-.666-.466 2.683-2.158 2.017-2.624-.664-.464-.786-.402-1.45-.866-.664-.465-2.61.518-3.274.054-.666-.464 1.297-1.457.631-1.922-.665-.464-4.2 1.321-4.865.856-.666-.466-.753-.421-1.419-.887-.665-.465-2.322.373-2.986-.092-.666-.465 3.459-2.549 2.794-3.014-.665-.465-3.941 1.19-4.606.725-.665-.463 4.085-2.864 3.421-3.328-.665-.465-3.686 1.062-4.351.597-.665-.465 1.426-1.522.761-1.986-.664-.464-5.51 1.984-6.174 1.52-.663-.464 4.275-2.959 3.611-3.423-.664-.465-2.994.713-3.658.248-.665-.465-2.14.281-2.805-.184-.664-.464-1.106-.241-1.77-.705-.663-.464 2.504-2.064 1.84-2.528-.663-.464-3.951 1.198-4.614.735-.571-.4-.9-.33-1.405-.6-1.44.276-4.235.392-4.235.839 0 .602 2.446.602 2.446 1.203 0 .601-2.002.601-2.002 1.202 0 .602-.154.602-.154 1.203 0 .602-2.953.602-2.953 1.204s1.884.602 1.884 1.204c0 .601 5.35.601 5.35 1.203 0 .601-4.335.601-4.335 1.203 0 .601-.982.601-.982 1.203 0 .601 3.147.601 3.147 1.202 0 .602.405.602.405 1.203 0 .601-4.239.601-4.239 1.201 0 .601 6.332.601 6.332 1.202s-2.184.601-2.184 1.202 1.062.601 1.062 1.203c0 .599-.933.599-.933 1.2 0 .6-2.543.6-2.543 1.199 0 .601 4.082.601 4.082 1.201 0 .601-4.337.601-4.337 1.203 0 .266.088.414.186.548-.87.18-1.734.356-2.034.105-.607-.505 1.678-1.473 1.072-1.978-.605-.504-3.276.628-3.881.124-.605-.505 1.202-1.271.597-1.776-.605-.504-.094-.721-.699-1.225-.604-.503-2.139.148-2.742-.356-.606-.504-1.312-.205-1.917-.709-.604-.503-1.561-.097-2.165-.6-.602-.503 2.17-1.677 1.568-2.179-.606-.505-.867-.394-1.473-.898-.603-.503-3.025.523-3.629.02-.605-.504 3.567-2.272 2.962-2.776-.604-.503-1.558-.099-2.162-.602-.604-.504-2.345.233-2.949-.271-.604-.503-.762-.435-1.366-.938-.604-.503-.296-.634-.899-1.137-.604-.503-2.234.188-2.839-.315-.604-.504 3.994-2.451 3.389-2.955-.603-.502-1-.334-1.603-.837-.603-.502-.129-.703-.732-1.205-.603-.503-5.29 1.483-5.893.98-.604-.504-1.945.065-2.548-.438-.604-.503.699-1.056.095-1.558-.602-.503 4.246-2.557 3.644-3.06-.603-.501-2.64.363-3.241-.139-.073-.061-.128-.116-.172-.169.01.028.022.056.015.083-.154.608-2.499.398-2.652 1.007-.154.608-4.494.219-4.648.827-.154.607 5.372 1.101 5.218 1.709-.154.607.088.629-.066 1.236-.153.607-3.453.312-3.607.918-.154.607 3.681.949 3.528 1.555-.153.607-1.071.524-1.225 1.132-.153.606-1.921.449-2.074 1.055-.153.607-1.957.446-2.11 1.052-.155.606-1.7.469-1.854 1.075-.154.607 4.165.993 4.012 1.599-.153.607-2.866.364-3.021.972-.153.605 1.638.765 1.485 1.372-.153.606-1.034.527-1.188 1.133-.153.607 1.779.78 1.625 1.385-.153.606 1.885.788 1.732 1.394-.154.605-1.828.456-1.982 1.062-.153.606-.186.603-.34 1.209-.153.606-.256.596-.409 1.201-.153.605-3.15.337-3.302.943-.154.604 4.528 1.023 4.375 1.629-.154.605-6.442.044-6.595.65-.153.606 1.838.783 1.684 1.389-.153.604 3.001.886 2.848 1.491-.152.603-.678.557-.831 1.161-.153.606-2.166.426-2.319 1.032-.154.606 1.522.755 1.369 1.361-.154.606-2.786.371-2.94.976-.153.607 4.499 1.023 4.346 1.628-.153.607-2.487 2.699-3.516 2.746-1.02.046-3.861-1.879-4.133-2.465-.273-.587.329-.685.056-1.271-.271-.586 5.068-1.462 4.796-2.048-.272-.585-2.689-.188-2.962-.774-.271-.585-1.666-.357-1.937-.942-.272-.585 3.777-1.249 3.506-1.834-.272-.584-4.437.1-4.708-.484-.272-.585.627-.733.355-1.317-.271-.585-2.988-.139-3.26-.724-.271-.585 1.56-.885 1.287-1.47-.271-.585-.676-.518-.948-1.103-.271-.584 3.372-1.182 3.101-1.767-.273-.584-3.137-.114-3.408-.699-.272-.584.992-.791.721-1.375-.272-.585 3.255-1.163 2.983-1.748-.272-.584-2.585-.204-2.857-.788-.27-.584-3.789-.007-4.059-.59-.272-.584 3.715-1.239 3.444-1.823-.271-.584.22-.664-.052-1.249-.271-.583-3.057-.126-3.329-.709-.271-.583-.301-.579-.571-1.162-.272-.583-2.724-.18-2.994-.763-.272-.585 4.874-1.429 4.602-2.014-.271-.583.989-.79.718-1.373s-5.663.302-5.934-.281c-.271-.582-1.84-.324-2.111-.906-.27-.582 3.685-1.232 3.414-1.814-.27-.584.172-.656-.099-1.24-.272-.584 1.394-.858 1.123-1.441-.272-.585-3.661-.028-3.932-.612-.272-.584 2.56-1.049 2.288-1.632-.27-.584-6.244.397-6.516-.187-.271-.583 3.959-1.278 3.688-1.862-.272-.584-.35-.57-.621-1.154-.272-.584 2.861-1.097 2.59-1.682-.272-.583-1.322-.412-1.593-.995-.271-.583-1.807-1.569-2.819-1.631-1.009-.062.556 1.748.102 2.287-.455.539-.327.576-.782 1.115-.454.538-1.826.129-2.28.667-.454.537-3.179-.275-3.632.261-.454.538-1.206.313-1.66.85-.454.537 3.932 1.844 3.479 2.381-.452.536-3.568-.392-4.02.144-.454.537-1.074.352-1.527.889-.451.535-.64.479-1.092 1.014-.453.537 1.505 1.12 1.052 1.656-.453.537 2.291 1.355 1.838 1.892-.453.536-3.345-.325-3.798.211-.452.536.738.89.284 1.427-.452.537.135.795-.859.896-1.007.102-1.402.245-2.145-.17-.745-.415.999-1.517.255-1.933-.742-.414.719-1.337-.023-1.752-.741-.414-2.156.481-2.897.067-.742-.414-3.233 1.16-3.974.746-.741-.414.507-1.203-.234-1.616-.74-.414-2.777.874-3.517.461-.74-.414 3.136-2.865 2.394-3.279-.739-.412-2.2.511-2.938.099-.738-.413-2.999 1.017-3.738.604-.741-.415 1.066-1.556.325-1.969-.74-.414-2.168.489-2.908.075-.741-.413.336-1.093-.405-1.507-.739-.413 1.954-2.115 1.214-2.528-.74-.414-4.702 2.09-5.442 1.677-.739-.413-.765-.398-1.504-.811-.739-.413-1.022-.234-1.76-.647-.74-.413.789-1.38.05-1.793-.74-.413-1.522.081-2.262-.332-.739-.413.045-.909-.693-1.321-.739-.412.146-.972-.591-1.384-.739-.413 1.306-1.706.567-2.118-.739-.414-.802-.374-1.542-.787-.516-.289-1.81.344-2.796.611.128.207.203.393.177.536-.061.344-.245.752-.33 1.219-.068.373-5.909.407-5.991.848-.071.385 6.843 1.259 6.761 1.69-.074.39-5.032.47-5.115.894-.077.397.202.829.119 1.25-.079.399 3.008 1.034 2.924 1.452-.081.402-1.125.744-1.21 1.16-.083.402-2.096.669-2.183 1.083-.085.404 1.404.93 1.315 1.342-.087.404 1.85.972 1.759 1.383-.089.405-.586.787-.679 1.196-.091.407-.359.806-.454 1.214-.094.406-3.757.52-3.853.926-.098.407 2.91 1.081 2.81 1.486-.099.407-1.695.686-1.798 1.088-.104.409.623.896.517 1.297-.108.41.563.897.452 1.297-.112.41-5.046.336-5.16.734-.118.411.561.887.441 1.282-.125.414 3.668 1.251 3.541 1.643-.134.415-3.332.462-3.467.851-.145.418.553.923.407 1.306-.16.422-1.783.6-1.945.974-.185.43 1.54 1.131 1.354 1.489-.23.448-.419.879-.648 1.2-.387.541-.96 1.123-1.335 1.235-.357.105-2.935.186-3.575-.384-.318-.281 3.221-2.005 2.844-2.429-.291-.329-4.734.532-5.057.125-.277-.348 2.396-1.538 2.098-1.938-.266-.359-3.038-.099-3.32-.495-.259-.366-1.173-.601-1.444-.995-.253-.371 3.836-1.79 3.573-2.184-.249-.373-4.608.2-4.864-.192-.245-.375-1.574-.524-1.825-.916-.241-.377 1.981-1.323 1.734-1.714-.238-.379 3.341-1.605 3.097-1.996-.236-.382-6.878.628-7.119.236-.235-.383 2.995-1.521 2.758-1.911-.233-.384-1.127-.631-1.362-1.023-.231-.384 2.14-1.32 1.907-1.711-.228-.385-3.1-.219-3.33-.61-.229-.387.727-1.02.497-1.411-.226-.387.028-.874-.199-1.264-.226-.388-.62-.743-.846-1.135-.225-.388.012-.871-.213-1.262-.223-.39-2.751-.314-2.973-.703-.223-.391-.491-.773-.712-1.162-.222-.39-1.003-.669-1.224-1.059-.22-.39-1.07-.655-1.289-1.044-.22-.391 4.625-1.782 4.408-2.17-.22-.392-6.669.447-6.886.059-.218-.393.597-.988.381-1.376-.217-.393 2.631-1.383 2.416-1.771-.216-.393 1.126-1.086.912-1.473-.216-.394-1.394-.596-1.606-.983-.216-.394-5.788.251-5.999-.136-.216-.395 2.755-1.401 2.544-1.787-.216-.396 2.136-1.279 1.926-1.664-.216-.397-2.2-.448-2.408-.833-.216-.398 2.033-1.258 1.826-1.64-.216-.401-3.051-.292-3.256-.674-.216-.402 3.259-1.49 3.055-1.87-.216-.405-.384-.802-.585-1.179-.219-.409-3.727-.179-3.925-.553-.221-.415-1.999-.513-2.195-.881-.174-.331-1.12-.496-1.626-.719-.846.074-1.847.087-1.995.447-.251.61-2.732.251-2.982.861-.251.612 5.112 1.389 4.862 1.999-.251.61 1.942.928 1.691 1.537-.25.61-4.952-.072-5.202.537-.251.61-2.713.253-2.964.863-.25.61 1.53.868 1.279 1.478-.25.61.421.707.171 1.317-.251.61 2.702 1.038 2.452 1.648-.251.609-3.557.13-3.807.74-.251.61 3.748 1.19 3.498 1.799-.25.61-1.746.393-1.996 1.002-.251.61-.217.614-.467 1.225-.25.608 1.999.934 1.749 1.544-.25.608-5.742-.188-5.992.421s-.207.616-.457 1.224c-.069.169.074.223.288.219-.631.446-1.152 1.074-1.45.688-.429-.556 1.297-1.026.868-1.583-.428-.555 1.42-1.058.992-1.614-.427-.555-2.808.093-3.235-.462-.428-.554-.658-.492-1.086-1.048-.427-.554-.607-.505-1.034-1.06-.427-.554.322-.758-.104-1.312-.428-.554-1.735-.199-2.163-.754-.425-.552.871-.906.445-1.459-.427-.553 3.329-1.576 2.902-2.13-.427-.555-4.592.578-5.018.023-.427-.554 1.705-1.134 1.278-1.688-.428-.554 1.775-1.154 1.348-1.708-.427-.554-7.59 1.395-8.017.84-.427-.553 6.018-2.307 5.591-2.861-.427-.554-4.567.572-4.992.018-.427-.553 3.415-1.598 2.988-2.152-.427-.553-4.396.526-4.822-.028-.427-.554-.638-.497-1.065-1.051-.427-.553-2.133-.089-2.559-.641-.426-.553 6.41-2.413 5.984-2.966-.427-.553-5.323.779-5.75.226-.427-.554-1.392-.292-1.818-.845-.427-.554 2.399-1.323 1.973-1.876-.426-.553-1.962-.135-2.387-.688-.426-.552 1.226-.785.204-.778-1.051.008-3.554-.966-4.026-.407-.47.558 4.634 2.079 4.162 2.637-.47.558-5.385-.907-5.856-.349-.47.556.572.867.103 1.422-.47.558.027.706-.443 1.263-.47.557 1.398 1.113.93 1.67-.47.556-2.326.002-2.795.558-.47.556-1.228.331-1.697.887-.468.555 2.434 2.671 1.4 2.759-1.002.085-3.187-.339-3.84-.799-.652-.459-.498-.537-1.151-.996-.652-.459-1.346-.11-1.997-.569-.651-.457.822-1.196.172-1.654-.652-.458 1.853-1.715 1.202-2.173-.651-.458-.695-.436-1.345-.894-.65-.457.843-1.206.193-1.663-.651-.458-4.21 1.328-4.86.87-.648-.456.747-1.157.099-1.613-.649-.456-2.621.533-3.269.077-.65-.458 2.111-1.844 1.461-2.302-.65-.457-2.419.431-3.068-.026-.651-.458.579-.715-.374-.52-.972.198-.454-.058-.542.549-.089.609 2.425.738 2.337 1.345-.088.607-4.238.395-4.327 1.001-.088.606 3.477.79 3.389 1.396-.089.607-5.593.325-5.682.931-.088.606 6.354.937 6.266 1.543-.089.605.22.621.131 1.226-.088.606-6.303.287-6.392.893-.088.606 1.563.691 1.474 1.297-.088.606-.663.576-.751 1.182-.088.606-1.741.521-1.829 1.128-.089.605 5.662.901 5.574 1.507-.089.605-.069.606-.158 1.212-.088.606 1.635.694 1.547 1.299-.088.606-6.168.294-6.257.9-.088.605-.235.597-.323 1.203-.089.604 5.777.906 5.689 1.511-.089.605-4.604.373-4.692.978-.088.606-2.84.464-2.928 1.07-.088.605 2.158.72 2.07 1.325-.088.603 3.689.797 3.601 1.402-.088.604 1.586.69 1.498 1.295-.089.605-7.965.201-8.053.807-.088.604 2.386.731 2.298 1.335-.088.605.134.616.046 1.22-.088.604 3.992.813 3.904 1.416-.088.606.409.631.322 1.237-.088.604-.492.583-.58 1.189-.056.39-2.581.4-4.398.519.526-.25.862-.488.445-.444-.264.028-.595.221-.951.483-.195.017-.373.037-.533.059.366-.247.588-.471.433-.636-.512-.541-2.424.097-2.937-.445-.511-.54 2.836-1.657 2.324-2.197-.511-.541-5.105.991-5.617.45-.511-.541 5.392-2.51 4.881-3.051-.511-.54-1.947-.06-2.458-.6-.511-.541-2.573.147-3.084-.394-.51-.539-.695-.477-1.204-1.016-.511-.541.548-.894.037-1.434-.511-.541-3.437.435-3.948-.106-.511-.54.217-.783-.293-1.323-.511-.541-.721-.471-1.232-1.011-.51-.54-.039-.697-.55-1.237-.51-.54-.741-.463-1.251-1.004-.511-.54 1.584-1.239 1.075-1.779-.51-.539-3.276.384-3.785-.155-.511-.54-.452-.561-.962-1.101-.51-.54.564-.898.054-1.438-.509-.539-.31-.606-.82-1.145-.509-.539 2.852-1.661 2.342-2.199-.51-.54-3.238.37-3.747-.169-.51-.54-1.295-.278-1.806-.818-.51-.54-.781-.449-1.291-.989-.509-.539-1.891-.077-2.4-.616-.508-.538 2.75-1.626 2.242-2.164-.256-.271-1.358-.08-2.455.108.667.201 1.332.401 1.274.708-.115.619-6.301.209-6.416.827-.116.618 2.604.797 2.487 1.416-.115.616-1.692.512-1.808 1.129-.115.616-1.599.518-1.714 1.134-.116.617 1.464.722 1.349 1.339-.117.617 4.799.943 4.683 1.56-.115.617-6.933.166-7.05.782-.115.617 7.28 1.107 7.164 1.725-.116.616-.573.585-.688 1.203-.115.617-6.06.223-6.176.84-.115.617 2.479.788 2.364 1.405-.117.616-3.57.387-3.685 1.005-.115.616 7.499 1.12 7.384 1.736-.116.616-5.042.29-5.157.906-.116.616-2.394.465-2.509 1.082-.116.616-.75.574-.866 1.191-.116.616.188.635.073 1.252-.115.615 2.567.792 2.452 1.407-.115.616-.385.599-.5 1.214-.115.616 1.581.728 1.466 1.345-.116.616.335.646.219 1.261-.115.615 2.223.771 2.108 1.385-.104.556-5.873.231-7.099.612-.065-.285.029-.428-.206-.866-.318-.592-3.184-.048-3.502-.64-.317-.59-1.829-.304-2.147-.895-.318-.591-1.53-.361-1.847-.952-.317-.592 2.626-1.15 2.309-1.741-.318-.591-2.299-.215-2.617-.806-.317-.591 4.798-1.561 4.481-2.152-.316-.59-.564-.543-.88-1.134-.317-.591-6.018.49-6.337-.102-.316-.59-.248-.603-.565-1.193-.317-.59 5.618-1.715 5.3-2.305-.317-.591-.16-.621-.476-1.211-.317-.591-2.758-.128-3.075-.719-.317-.589-2.586-.159-2.904-.749-.316-.589-1.744-.318-2.06-.908-.317-.59 2.716-1.165 2.399-1.755-.317-.59-.27-.598-.588-1.189-.317-.59.855-.813.538-1.402-.316-.589.238-.695-.079-1.284-.316-.589-2.62-.152-2.935-.74-.318-.591 4.082-1.425 3.764-2.015-.316-.59-4.939.287-5.255-.304-.318-.59.138-.677-.179-1.267-.317-.591.47-.74.152-1.33-.316-.591-3.763.063-4.081-.527-.316-.59 4.735-1.548 4.418-2.138-.316-.59-3.837.077-4.154-.513-.317-.589.609-.765.292-1.356-.318-.59.942-.465-.065-.626-.995-.16-1.314-.87-2.066-.451-.751.419-1.488-.048-2.24.371-.75.418 2.604 2.542 1.854 2.961-.748.417-1.481-.047-2.23.371-.749.418-.309.696-1.059 1.114-.748.418-4.041-1.667-4.79-1.25-.748.417-1.319.056-2.067.473-.749.417 1.434 1.8.685 2.218-.746.416-.348.668-1.095 1.084-.746.416-.242.736-.988 1.152-.749.417.728 1.351-.021 1.769-.748.417-2.207-1.57-3.211-1.694-.61-.076-.597.132-.584.175-.009-.022-.04-.086-.136-.225-.386-.557 1.564-1.033 1.178-1.591-.386-.557-3.247.143-3.633-.414-.385-.555 3.58-1.524 3.195-2.08-.384-.556-7.245 1.121-7.629.565-.385-.556.812-.849.427-1.404-.384-.555.405-.748.02-1.302-.385-.556-2.428-.057-2.813-.613-.383-.553 6.323-2.192 5.939-2.747-.385-.554-3.019.089-3.403-.465-.384-.556-1.52-.279-1.905-.834-.384-.555-.811-.451-1.196-1.006-.384-.555-.551-.515-.936-1.07-.383-.554-1.502-.281-1.886-.836-.385-.555-1.718-.229-2.103-.785-.384-.554 2.994-1.381 2.609-1.935-.383-.554.854-.857.47-1.411-.384-.555-.505-.525-.889-1.08-.383-.555-1.849-.197-2.234-.751-.384-.554 3.786-1.574 3.402-2.128-.382-.554-2.94.072-3.324-.482-.384-.555-.902-.97-1.909-.933-1.026.037.751.892.425 1.472-.325.58-3.776-.105-4.102.474-.326.579-1.599.326-1.925.905-.326.578 6.137 1.861 5.811 2.441-.325.578-3.111.025-3.436.603-.326.578 3.002 1.238 2.677 1.816-.324.578-7.147-.778-7.471-.201-.326.578 4.829 1.603 4.503 2.181-.325.577-4.976-.347-5.301.231-.325.579 3.201 1.279 2.876 1.857-.326.578 1.392.919 1.067 1.497-.325.577-5.442-.44-5.768.139-.037.066-.023.123.022.17-.39.036-.738.026-.944-.135-.629-.489 1.2-1.319.572-1.808-.628-.488-4.443 1.244-5.07.757-.628-.488 4.848-2.975 4.22-3.463-.627-.488-4.694 1.358-5.322.87-.626-.486.897-1.179.271-1.665-.628-.488.949-1.204.321-1.692-.625-.487-4.3 1.181-4.925.695-.626-.486.942-1.198.317-1.684-.628-.488-.161-.7-.788-1.188-.626-.487.122-.827-.504-1.314-.627-.488-3.514.823-4.141.336-.626-.488 2.652-1.976 2.026-2.463-.627-.488-2.373.305-3-.183-.626-.486 2.307-1.818 1.68-2.305-.625-.487-1.732.016-2.358-.471-.626-.488-4.954 1.478-5.581.991-.626-.487-.633-.484-1.259-.971-.626-.486 3.42-2.323 2.795-2.809-.625-.487-1.592-.048-2.217-.535-.626-.486.803-1.134.178-1.622-.626-.486-2.484.357-3.111-.13-.528-.412-1.855.085-2.633-.043-.218.582-3.903.289-4.043.891-.141.609-.33.594-.47 1.203-.142.609-.885.548-1.027 1.156-.14.608 3.207.882 3.066 1.49-.141.608-5.261.189-5.403.798-.141.608.672.674.531 1.284-.142.608 6.241 1.131 6.099 1.739-.141.608-.734.56-.876 1.169-.14.608-4.448.255-4.589.863-.141.609-1.613.489-1.753 1.097-.142.607 2.488.823 2.346 1.431-.14.608 3.508.907 3.366 1.515-.14.609-7.329.02-7.469.627-.141.608 6.206 1.127 6.065 1.735-.142.608-4.796.226-4.937.834-.141.608-.86.549-1.001 1.158-.141.606 2.449.818 2.307 1.426-.14.606-3.895.298-4.036.906-.141.606.867.689.727 1.296-.142.608-.159.607-.3 1.214-.141.608 4.509.989 4.367 1.596-.141.607-4.737.23-4.878.836-.14.607-.515.575-.655 1.182-.141.607 5.254 1.05 5.112 1.657-.14.607-3.305.349-3.445.956-.141.607 2.586.831 2.445 1.439-.14.608-3.598.325-3.739.932-.115.498-1.015.521-1.416.846-.015-.182-.008-.344-.187-.674-.319-.588.282-.703-.039-1.291-.318-.588-3.668.054-3.986-.533-.318-.587 4.139-1.442 3.82-2.029-.319-.587-4.854.282-5.173-.306-.319-.588-.632-.527-.952-1.115-.319-.588.577-.76.258-1.347-.319-.588 2.141-1.06 1.822-1.648-.319-.587 1.231-.884.912-1.471-.319-.588-3.53.027-3.848-.561-.32-.587 2.655-1.157 2.337-1.744-.32-.587-2.942-.085-3.26-.672-.319-.588 1.229-.884.911-1.471-.319-.586-2.929-.086-3.247-.673-.318-.587 4.345-1.481 4.026-2.068-.319-.587-3.412.006-3.73-.582-.318-.586-2.652-.138-2.971-.724-.317-.586 5.467-1.696 5.15-2.282-.319-.586-1.195-.418-1.512-1.004-.319-.587-1.491-.363-1.811-.95-.318-.587-2.981-.076-3.299-.663-.318-.586.189-.682-.129-1.268-.318-.585 1.36-.907 1.043-1.492-.32-.586-.254-.599-.573-1.186-.318-.587-4.941.299-5.259-.288-.319-.586 6.55-1.903 6.232-2.49-.318-.587-5.281.364-5.6-.223-.319-.587-.114-.626-.432-1.213-.319-.587-1.26-.406-1.578-.993-.319-.586 3.672-1.352 3.353-1.938-.318-.586-4.056.13-4.376-.457-.318-.588 3.901-1.396 3.581-1.983-.318-.586-2.586-.151-2.904-.738-.318-.586-.717-.51-1.035-1.096-.319-.587 1.548-.944 1.229-1.531-.318-.586-1.671-.327-1.989-.913-.174-.321-.195-.478-.23-.649-1.638.102-4.716-.134-4.865.319-.197.605 4.341 1.128 4.143 1.734-.197.605-3.76.194-3.957.799-.198.605 4.118 1.103 3.921 1.709-.198.604-3.668.203-3.865.807-.198.604.526.688.329 1.291-.198.605-3.001.282-3.2.886-.197.605 6.175 1.34 5.978 1.944-.198.605.13.643-.068 1.247-.198.605-1.45.461-1.647 1.065-.197.604-.363.585-.56 1.188-.199.605-.596.559-.793 1.164-.198.603-.133.611-.33 1.214-.198.605-1.294.479-1.492 1.082-.197.605-3.662.205-3.859.808-.197.604-.591.559-.788 1.161-.197.605-.228.601-.426 1.204-.197.605 6.142 1.336 5.944 1.94-.197.603-2.38.351-2.578.954-.197.602-4.702.083-4.899.685-.196.603 5.115 1.216 4.918 1.819-.197.604 1.552.806 1.354 1.41-.197.603-7.217-.207-7.414.396-.197.603 7.218 1.458 7.021 2.061-.197.602-1.784.419-1.981 1.02-.197.604.587.695.39 1.298-.197.604-2.63.323-2.827.926-.197.604 1.608.813 1.411 1.416-.197.604-1.616.497-2.644.575-1.043.08-3.593.844-4.089.293-.497-.551 5.127-2.34 4.631-2.89-.496-.551-2.507.089-3.003-.46-.494-.549-2.53.098-3.024-.451-.495-.548 3.803-1.916 3.308-2.465-.494-.549-3.156.298-3.651-.251-.493-.548-1.267-.302-1.761-.85-.495-.549-1.306-.291-1.8-.84-.493-.547.111-.739-.382-1.286-.494-.549-2.65.137-3.145-.411-.494-.549-.85-.436-1.344-.984-.494-.549-.022-.7-.516-1.247-.494-.549-.429-.57-.923-1.119-.494-.547 3.777-1.906 3.282-2.454-.494-.549-4.547.741-5.043.193-.493-.548-.916-.413-1.409-.961s5.612-2.491 5.117-3.038c-.493-.548-1.922-.093-2.417-.641-.494-.549-3.042.263-3.536-.286-.493-.547 1.218-1.091.725-1.639-.493-.547-.149-.656-.642-1.203-.493-.548-4.362.684-4.855.136-.494-.548 2.305-1.439 1.811-1.987-.205-.227-.822-.202-1.506-.134-.082.279-.218.394-.242.847-.032.612-3.715.543-3.746 1.154-.032.61-1.962.575-1.994 1.184-.032.612-1.34.587-1.372 1.199-.032.61.755.625.723 1.236-.033.61.478.62.446 1.231-.032.611 4.964.703 4.932 1.315-.032.61-5.648.506-5.68 1.117-.032.61.02.611-.012 1.223-.032.609 3.463.674 3.431 1.285-.032.61-2.38.567-2.412 1.177-.032.611 1.571.64 1.539 1.25-.032.61 1.06.63 1.029 1.24-.032.61 2.465.657 2.433 1.267-.032.611-3.297.55-3.329 1.16-.033.61.015.611-.016 1.22-.032.609-.429.602-.461 1.21-.032.61.988.629.956 1.238-.032.611-4.97.519-5.002 1.129-.031.611 2.411.656 2.379 1.265-.032.609-.361.603-.393 1.212-.032.61.322.617.29 1.227-.033.61.513.621.481 1.231-.032.609 2.168.65 2.137 1.261-.033.609.949.628.918 1.238-.033.61-3.602.544-3.634 1.154-.032.611-.557.601-.589 1.211-.031.61 2.119.65 2.087 1.259-.022.408-1.76.512-2.92.718-1.401-.087-5.746.979-6.112.488-.423-.566 3.263-1.537 2.842-2.104-.422-.566-4.727.568-5.149.001-.422-.566 1.162-.983.74-1.549-.422-.567-1.621-.251-2.043-.818-.422-.565 1.462-1.061 1.04-1.627-.421-.566-1.672-.237-2.094-.802-.422-.567-1.874-.184-2.295-.749-.422-.567 5.235-2.056 4.813-2.622-.422-.565-4.258.444-4.679-.122-.421-.564-2.519-.012-2.94-.578-.422-.565.566-.825.145-1.39-.422-.567 4.629-1.896 4.209-2.461-.421-.566.802-.888.381-1.452-.42-.565-.476-.55-.897-1.115-.421-.565-5.239.703-5.66.138-.422-.565.722-.866.302-1.432-.422-.565.221-.735-.2-1.299-.421-.565.482-.802.062-1.367-.421-.563-1.488-.283-1.908-.846-.42-.564.961-.927.54-1.492-.421-.564-5.337.73-5.759.165-.421-.566 4.934-1.975 4.513-2.541-.421-.565-.207-.622-.629-1.187-.421-.565-5.008.642-5.43.076-.421-.564.009-.678-.412-1.243-.422-.564 2.376-1.301 1.955-1.866-.422-.566-1.903-.176-2.324-.741-.422-.566 1.2-.993.778-1.558-.421-.565-3.637.281-4.058-.283-.42-.566.64-.845.219-1.409-.421-.565 2.603-1.361 2.182-1.926-.421-.565-5.428.753-5.85.188-.421-.565 4.981-1.987 4.559-2.552-.421-.566-3.822.33-4.244-.236-.421-.565 2.761-1.402 2.34-1.968-.42-.564-.555-.529-.976-1.093-.42-.565.443-.792.022-1.357-.21-.282-1.235-.181-2.259-.08-.138.51-1.308.55-1.308 1.122 0 .609.57.609.57 1.217 0 .607.322.607.322 1.216 0 .607-.316.607-.316 1.215 0 .606-3.133.606-3.133 1.213 0 .607-1.055.607-1.055 1.215 0 .608 5.694.608 5.694 1.215 0 .608-1.841.608-1.841 1.215 0 .607-5.853.607-5.853 1.215 0 .607 6.126.607 6.126 1.214s-4.202.607-4.202 1.215c0 .607 5.401.607 5.401 1.213 0 .608-3.409.608-3.409 1.215 0 .607 3.293.607 3.293 1.213 0 .607-.833.607-.833 1.213 0 .439-2.495.562-3.88.824-.267-.167-.464-.256-.88-.588-.626-.499-.202-.686-.829-1.186-.625-.498-1.818.029-2.443-.47-.626-.499-1.575-.078-2.201-.578-.626-.498-.46-.571-1.085-1.07-.625-.498.497-.995-.127-1.493-.625-.498-2.171.185-2.796-.314-.623-.497 2.168-1.732 1.545-2.229-.624-.497-.58-.517-1.203-1.014-.626-.499-4.305 1.13-4.93.632-.624-.498 4.464-2.751 3.84-3.249-.625-.499-4.898 1.392-5.523.894-.624-.498.92-1.181.296-1.679-.625-.498-2.459.313-3.083-.185-.624-.498-1.605-.064-2.229-.561-.624-.499 1.508-1.442.884-1.939-.624-.498-.32-.633-.945-1.13-.624-.498-1.353-.176-1.978-.674-.623-.497-1.659-.039-2.282-.536-.623-.497-.159-.702-.782-1.199-.623-.497 1.665-1.284.637-1.178-1.01.104-1.371-.136-1.636.453-.265.589-2.491.235-2.756.824-.265.587-.364.572-.629 1.16s6.861 1.72 6.597 2.307c-.265.588-4.447-.076-4.711.512-.265.587.933.777.67 1.364-.265.586.44.699.176 1.285s.776.751.511 1.339c-.264.587-1.33.418-1.594 1.005s1.223.823.959 1.41c-.264.587-4.391-.068-4.655.519-.263.587.599.725.335 1.311-.264.586.213.663-.052 1.25-.263.586 1.802.915 1.538 1.5-.263.587-1.951.32-2.215.907-.264.586-.176.119-1.198.132-1.043.013-1.063.527-1.44-.051-.376-.578 1.969-1.117 1.593-1.696-.376-.577-1.3-.365-1.676-.942-.376-.577-1.758-.26-2.134-.837-.376-.576 2.77-1.3 2.394-1.877-.375-.576-3.323.102-3.699-.474-.375-.577.311-.734-.063-1.31-.376-.576-3.989.255-4.365-.321-.376-.577 1.643-1.041 1.267-1.618-.375-.577-2.124-.174-2.499-.75-.376-.577-.953-.444-1.329-1.021-.375-.576-.087-.642-.462-1.218-.376-.577 6.591-2.178 6.215-2.755-.375-.576-4.97.481-5.344-.094-.376-.577.017-.667-.358-1.243-.375-.577-.43-.564-.805-1.14-.375-.575-2.376-.114-2.751-.69s3.997-1.582 3.622-2.157c-.375-.576-1.213-.384-1.588-.959-.374-.575 2.115-1.147 1.74-1.722-.374-.576-5.203.536-5.577-.039-.375-.576-.7-.501-1.074-1.076-.375-.576 1.513-1.01 1.138-1.586-.375-.576-1.058-.419-1.432-.994-.335-.514-2.358-.114-3.047-.437-.359.31-1.12.369-1.199.852-.099.608 1.134.679 1.035 1.286-.099.608-3.577.408-3.676 1.015-.099.607 3.629.822 3.529 1.43-.1.607-3.166.43-3.265 1.038-.099.606-.961.557-1.059 1.164-.1.607 4.539.875 4.44 1.482-.099.607-7.617.173-7.717.78-.099.607 3.073.79 2.973 1.397-.099.607 3.711.826 3.612 1.433-.099.606-.547.581-.646 1.186-.1.608-5.208.313-5.308.919-.098.608 3.49.814 3.391 1.421-.099.606-4.969.325-5.067.931-.099.605 4.044.844 3.946 1.45-.1.605-1.206.542-1.306 1.147-.098.608-2.483.47-2.583 1.077-.098.606.598.646.499 1.252-.098.606 2.532.757 2.434 1.363-.1.604-1.865.503-1.964 1.107-.099.607 2.88.779 2.78 1.385-.098.606-.87.562-.969 1.168-.099.606-2.022.496-2.122 1.102-.034.211-.299.333-.629.431-.21-.092-.424-.19-.68-.434-.542-.515-4.967 1.128-5.509.612-.542-.516.363-.852-.18-1.368-.542-.515 4.035-2.214 3.493-2.73-.541-.514-1.267-.245-1.808-.76-.542-.515-3.401.546-3.943.031-.54-.514-1.429-.184-1.97-.698-.541-.515 4.43-2.361 3.888-2.876-.542-.515-7.098 1.919-7.64 1.404-.542-.515 3.979-2.195 3.438-2.709-.542-.516-3.603.622-4.145.106-.541-.514-.109-.675-.65-1.189-.542-.516-.977-.354-1.519-.869-.541-.515 1.563-1.296 1.022-1.811-.541-.514 2.382-1.599 1.841-2.113-.541-.515-5.435 1.303-5.976.788-.542-.515-.588-.498-1.13-1.013-.54-.513 1.497-1.27.956-1.784-.54-.514-3.215.48-3.756-.034-.54-.514 3.744-2.105 3.203-2.619-.541-.515-5.404 1.291-5.945.776-.541-.514 3.271-1.93 2.73-2.443-.54-.514-4.18.838-4.72.325-.541-.514.891-1.045.351-1.558-.539-.512 2.085-1.487 1.546-2.001-.54-.512-4.385.915-4.925.402-.54-.514 2.218-1.538 1.678-2.052-.542-.515-.737-.441-1.279-.956-.54-.515 1.488-1.268.947-1.782s-1.915-.004-2.456-.518c-.54-.515-.429-.556-.969-1.07-.541-.514.104-.754-.437-1.268s-2.982.392-3.523-.123c-.541-.514 3.71-2.093 3.17-2.606-.541-.515-1.901-.009-2.442-.524-.54-.513-4.55.976-5.091.462-.54-.514.787-1.008.246-1.521-.541-.515-2.917.368-3.458-.147-.249-.237.446-.673 1.213-1.124-1.176-.198-3.939-2.728-4.446-2.203-.53.55 1.245 1.154.714 1.704-.53.55 1.793 1.341 1.264 1.89-.528.548.732.977.204 1.525-.529.549-5.446-1.126-5.975-.577-.529.548 2.181 1.472 1.653 2.02-.527.546-1.097.353-1.625.9-.528.549-2.966-.281-3.494.267-.528.546 2.317 1.515 1.79 2.061-.529.548 3.272 1.842 2.744 2.39-.528.549-5.15-1.026-5.679-.478-.528.548-.121.687-.649 1.235-.529.547-1.98.053-2.508.601-.528.547 4.782 2.356 4.254 2.903-.528.547-3.876-.592-4.403-.044-.38.393.069-.264-.041-.684.768.232 1.919.455 1.738.109-.097-.184-.806-.191-1.744-.132-.049-.153-.177-.271-.459-.285-.409-.019-.1.133.401.288-2.067.134-5.19.571-5.4.17-.308-.587 3.529-1.297 3.221-1.883-.307-.588 1.458-.914 1.151-1.501-.308-.587-5.152.308-5.458-.279-.308-.587-1.364-.391-1.67-.977-.307-.586 5.025-1.573 4.719-2.158-.307-.586-4.109.117-4.415-.47-.308-.587 5.703-1.698 5.395-2.285-.307-.586-5.071.295-5.378-.291-.308-.587-2.582-.166-2.89-.753-.306-.586.989-.825.681-1.411-.306-.587 1.842-.985 1.535-1.571-.306-.586-1.916-.288-2.222-.874-.308-.587.966-.822.659-1.408-.307-.586-2.669-.149-2.976-.735-.306-.585 1.022-.83.715-1.416-.307-.586-1.231-.415-1.538-1.001-.307-.586-1.24-.413-1.547-.999-.307-.585.48-.731.173-1.316-.307-.585.533-.74.227-1.324-.306-.585-.281-.59-.587-1.175-.307-.586-1.393-.386-1.701-.971-.305-.585-.969-.462-1.276-1.048-.306-.584 6.606-1.863 6.301-2.448-.307-.584-.712-.508-1.018-1.092-.306-.586-4.293.151-4.599-.435-.307-.585 4.019-1.385 3.713-1.971-.307-.586-6.196.504-6.502-.082-.307-.586 2.488-1.102 2.181-1.689-.306-.585-.112-.439-1.141-.393-1.039.046.707.058.507.665-.198.609-2.932.293-3.13.901-.2.607 4.297 1.127 4.098 1.734-.198.607-.789.538-.988 1.145-.198.607-1.033.51-1.232 1.117-.198.606.802.721.604 1.328-.198.605-2.724.313-2.922.919-.198.606-.194.606-.392 1.213-.199.606-2.819.303-3.017.91-.198.605.83.725.631 1.33-.198.606-1.55.45-1.749 1.057-.198.606 6.823 1.418 6.625 2.023-.198.607-5.107.039-5.305.645-.198.605-2.182.377-2.38.982-.198.606-1.014.512-1.213 1.117-.198.606 6.455 1.375 6.258 1.981-.198.604-6.337-.105-6.535.5-.198.605 2.126.874 1.928 1.479-.199.606.038.633-.16 1.239-.199.605-1.546.449-1.745 1.053-.197.605-1.653.437-1.85 1.041-.198.605 5.964 1.318 5.765 1.922-.198.606-3.639.208-3.837.814-.199.604 3.91 1.08 3.712 1.684-.198.605-3.46.228-3.658.831-.198.604-2.991.281-3.188.885-.198.605-.39.583-.588 1.188-.198.605 1.69.824 1.492 1.429-.198.605-3.054.275-3.251.88-.198.605 4.564 1.156 4.365 1.762-.198.605 1.889.846 1.692 1.452-.199.604-2.589.328-2.787.933-.199.605-4.344.126-4.541.731-.199.605 3.948 1.085 3.75 1.69-.199.606.657.704.459 1.31-.199.605-4.542.102-4.741.708-.198.604-.64.554-.839 1.158-.197.606 1.208.768 1.011 1.372-.125.382.423.592.795.847-1.691.23-3.761.61-4.014.268-.417-.563-.869-.444-1.287-1.007-.416-.563.751-.869.335-1.431-.417-.563-1.707-.226-2.124-.788-.416-.563.222-.73-.194-1.292-.416-.562.121-.702-.295-1.264-.417-.562-1.039-.399-1.456-.962-.417-.562 2.843-1.415 2.426-1.977-.417-.563 2.305-1.275 1.888-1.837-.416-.563-5.594.793-6.011.23-.416-.562 2.56-1.34 2.144-1.903-.417-.562-2.538-.007-2.955-.569-.416-.562-.581-.519-.997-1.08-.416-.563 1.319-1.017.903-1.579-.416-.562-3.814.327-4.23-.235-.416-.561 4.499-1.848 4.083-2.408-.416-.563-5.888.869-6.304.308-.416-.562 1.848-1.155 1.432-1.716-.416-.562.202-.723-.214-1.283-.416-.562 3.804-1.666 3.389-2.226-.416-.562-3.242.179-3.658-.383-.416-.561-3.959.365-4.375-.197-.416-.561 5.922-2.219 5.507-2.78-.416-.561-1.386-.307-1.801-.868-.415-.559.36-.762-.054-1.322-.415-.56-4.139.414-4.554-.146-.415-.56 1.254-.996.839-1.557-.417-.562-1.047-.396-1.463-.957-.417-.563.299-.75-.117-1.312-.416-.561-5.231.699-5.646.137-.416-.561-.529-.531-.944-1.093-.416-.561.616-.831.2-1.392-.416-.562 1.173-.977.757-1.538-.416-.562-.5-.54-.916-1.102-.416-.561-1.373-.31-1.789-.872-.416-.56 1.058-.946.642-1.507-.415-.561-3.072.134-3.488-.427-.416-.561 3.663-1.628 3.247-2.189-.416-.561-2.647.022-3.063-.54-.423-.561-2.009-.146-2.425-.708-.416-.561 6.059-2.254 5.643-2.815-.416-.561-4.027.383-4.442-.177-.416-.561 1.906-1.168 1.49-1.729-.415-.56-2.601.011-3.016-.55-.416-.56 1.124-.963.708-1.524-.416-.561.335-.758-.08-1.319-.416-.562-4.056.39-4.472-.171-.416-.561-1.364-.313-1.78-.874-.416-.561 5.35-2.069 4.934-2.63-.415-.561-1.916-.168-2.331-.729-.415-.559-1.114-.377-1.53-.937-.415-.561-1.774-.205-2.189-.766-.416-.559-2.763.054-3.178-.507-.415-.56 1.472-1.053 1.057-1.614-.416-.561.663-.844.247-1.404-.415-.562 1.978-1.188 1.562-1.748-.416-.562-1.21-.354-1.626-.915-.416-.561-3.538.256-3.953-.305-.024-.032-.038-.064-.046-.097-.479.014-.893.069-1.046.283-.412.576-4.886-.553-5.298.023-.412.577 3.244 1.5 2.832 2.076-.412.577.779.878.367 1.454-.412.576-.46.564-.872 1.139-.411.575-1.393.328-1.804.902-.412.577-4.497-.455-4.909.121-.411.577 2.295 1.259 1.884 1.835-.412.577 1.206.985.795 1.561-.412.576-5.027-.589-5.438-.013-.412.576 4.949 1.929 4.538 2.504-.412.575.888.904.476 1.48-.411.575-5.126-.616-5.537-.04-.412.576 3.18 1.482 2.769 2.058-.411.575-4.505-.458-4.916.117-.411.575 2.47 1.302 2.058 1.876-.411.576-1.221.372-1.633.947-.411.575 1.622 1.089 1.211 1.664-.411.574-4.747-.521-5.157.053-.41.575-.401.578-.812 1.152-.41.574.631.837.221 1.411-.412.576 2.898 1.411 2.487 1.986-.411.576-.952.439-1.362 1.014-.411.573-1.188.402-2.233.459-1.029.056-.874-.036-1.417-.558-.544-.522-2.459.182-3.003-.34-.542-.522 3.286-1.928 2.743-2.45-.541-.52-4.932 1.094-5.473.574-.542-.521 5.283-2.662 4.741-3.183-.541-.521-2.288.122-2.83-.398-.54-.52-3.547.584-4.087.065-.542-.521 3.156-1.879 2.614-2.399-.539-.519-4.142.804-4.682.286-.541-.52 4.441-2.351 3.9-2.871-.541-.52-6.972 1.842-7.513 1.323-.541-.521.324-.839-.217-1.359-.541-.519-.186-.65-.727-1.17-.541-.52 4.342-2.314 3.801-2.833-.541-.52-.144-.667-.685-1.186-.541-.52-2.757.295-3.297-.225-.541-.519-4.93 1.094-5.471.575-.54-.52 4.246-2.279 3.706-2.798-.541-.52-2.159.075-2.7-.446-.54-.518-2.853.332-3.393-.187-.54-.519.057-.737-.483-1.256s2.765-1.733 2.225-2.252c-.54-.52-.293-.611-.834-1.131-.54-.519-2.241.107-2.782-.413-.539-.518-2.526.212-3.065-.306-.539-.518 2.312-1.566 1.773-2.084-.539-.518-2.182.086-2.721-.432-.539-.518-1.715-.086-2.254-.605-.54-.518 1.135-1.133.595-1.652-.541-.519 1.027-1.096.487-1.615-.541-.52-2.497.2-3.038-.32-.54-.519-1.336-.226-1.876-.745-.54-.519 3.928-2.161 3.388-2.68-.54-.519-.411-.567-.952-1.086-.54-.52-3.211.462-3.752-.058-.54-.518-1.221-.268-1.761-.787-.54-.519 2.316-1.568 1.776-2.087-.54-.519-3.571.595-4.111.076-.54-.519-1.302-.239-1.842-.759-.54-.518-1.549-.148-2.089-.667-.54-.52-.773-.434-1.313-.954-.54-.518-.439-.555-.979-1.075-.539-.518-1.021-.342-1.561-.86-.539-.519-.891-.389-1.431-.907-.54-.519 3.28-1.923 2.74-2.442-.54-.518 1.222-1.166.682-1.684-.54-.519-5.537 1.317-6.078.798-.54-.519 1.106-1.125.565-1.644-.54-.519 1.269-1.184.729-1.702-.54-.519-1.893-.022-2.432-.54-.54-.519-.241-3.241-1.253-3.14-1.019.104-.819 2.396-1.059 2.993s2.613 1.002 2.372 1.599c-.239.597-4.823-.054-5.063.543-.239.596 5.267 1.377 5.028 1.974-.24.595-.846.509-1.086 1.105-.239.596-5.902-.208-6.141.388-.239.594 2.276.951 2.037 1.546-.239.595 2.058.92 1.819 1.516-.24.596-.846.51-1.085 1.106-.24.595-.835.51-1.075 1.106-.239.596-.371.576-.61 1.172s-3.947.069-4.186.664c-.239.596-.052.622-.291 1.218-.239.595 5.414 1.396 5.175 1.991-.239.596-3.039.198-3.279.794-.239.595.688.726.448 1.32-.238.595 1.353.821 1.114 1.415-.239.595 1.822.887 1.583 1.482-.239.594-4.213.031-4.452.626-.239.593-1.855.365-2.093.959-.239.593 1.513.842 1.274 1.435-.239.595-2.618.257-2.857.851-.239.595-.182.602-.422 1.198-.239.594 2.696 1.011 2.457 1.605-.238.593-.603.542-.841 1.134-.238.594-2.881.219-3.119.812-.239.595 5.398 1.394 5.159 1.989-.238.594-1.095.473-1.333 1.068-.24.593-5.574-.163-5.813.431-.239.596.847.749.608 1.345-.239.594 2.277.951 2.038 1.546-.239.594-.275.589-.515 1.182-.238.595-2.116.329-2.355.923-.239.595 4.187 1.223 3.948 1.817-.239.594-.693.531-.932 1.126-.239.593.932.759.693 1.354-.239.594-7.361-.417-7.6.178-.239.594 4.77 1.305 4.531 1.898-.239.595-3.951.068-4.189.662-.239.595-1.166.463-1.405 1.058-.238.595 4.22 1.228 3.982 1.822-.239.594.937.761.698 1.355-.238.594.795.741.556 1.335-.238.593-3.923.07-4.162.664-.238.595 1.132.789.894 1.383-.239.593 1.483.837 1.245 1.432-.239.594.329.675.09 1.269-.239.595-1.523.413-1.763 1.008-.238.593-1.755.379-1.993.972-.239.594 2.513.985 2.275 1.578-.239.594-2.392.288-2.63.882-.239.594-1.98.347-2.219.941-.238.592 3.117 1.069 2.878 1.662-.238.594-3.178.177-3.417.77-.238.594-.792.515-1.03 1.109-.239.594-.411.57-.649 1.164-.239.594-.55.55-.789 1.144-.239.595 3.091 1.067 2.852 1.661-.239.594-1.542.41-1.781 1.003-.238.594.664.722.426 1.316-.239.593-2.029.339-2.267.932-.239.593.724.73.486 1.324-.238.592.114.642-.124 1.236-.238.593-2.816.226-3.054.82-.239.593-2.436.281-2.675.874-.238.593-.327.58-.566 1.173-.238.594-.298.585-.536 1.179-.238.594 2.903 1.039 2.664 1.633-.238.593-3.756.094-3.995.688-.238.594 6.131 1.497 5.892 2.092-.238.594-5.35-.131-5.589.463-.238.594-.748.521-.986 1.115-.239.594 4.155 1.217 3.917 1.811-.239.592-3.647.109-3.885.703-.238.592 2.796 1.023 2.558 1.616-.238.593-1.75.378-1.988.971-.238.592 2.933 1.043 2.696 1.634-.239.593-2.488-.417-3.499-.315-.46.046-.526.155-.518.221-.027-.037-.076-.092-.192-.191-.599-.509-3.103.532-3.702.024-.597-.508.183-.832-.414-1.34-.596-.507 1.827-1.514 1.231-2.02-.597-.508-4.516 1.121-5.113.614-.596-.506-.466-.561-1.063-1.068-.595-.506 1.84-1.517 1.244-2.023-.596-.507 2.323-1.72 1.727-2.227-.595-.505-3.678.777-4.272.271-.596-.506 1.889-1.539 1.293-2.045-.596-.507-4.404 1.075-5 .569-.596-.507-1.751-.026-2.347-.532-.596-.507.662-1.03.066-1.536-.596-.506 1.175-1.242.58-1.748-.596-.506-.715-.457-1.312-.963-.595-.506 2.158-1.651 1.563-2.156-.596-.505-6.292 1.862-6.887 1.356-.595-.506 4.657-2.688 4.061-3.194-.595-.506-1.817.001-2.412-.505-.595-.505 1.198-1.25.603-1.756-.594-.505-4.403 1.078-4.998.573-.595-.505-1.857.02-2.451-.485-.596-.507 4.43-2.595 3.834-3.101-.595-.506-6.17 1.811-6.765 1.306-.594-.505 5.56-3.063 4.967-3.567-.594-.505-.674-.472-1.267-.976-.594-.504-3.664.771-4.257.267-.594-.504-.037-.736-.631-1.241-.594-.505-.911-.373-1.506-.878-.595-.506-3.856.849-4.452.343-.594-.506 1.538-1.391.943-1.897-.595-.505 2.585-1.827 1.99-2.332-.595-.506-1.386-.177-1.981-.683-.595-.505-2.03.091-2.625-.414-.596-.506 2.49-1.789 1.895-2.295-.595-.505-3.954.891-4.549.386-.595-.506 1.494-1.373.9-1.879-.595-.505-.232-.656-.827-1.161s-5.964 1.726-6.559 1.22c-.595-.505.354-.9-.241-1.406-.595-.505 2.901-1.958 2.306-2.464-.595-.505-5.057 1.35-5.652.844-.595-.505 3.08-2.032 2.485-2.537-.594-.505-.426-.574-1.021-1.079-.594-.505-3.932.882-4.526.377-.595-.506 1.482-1.368.888-1.874-.595-.505-1.131-.282-1.725-.788-.596-.506-.808-.417-1.403-.923s3.296-2.123 2.701-2.628c-.594-.505-6.297 1.865-6.892 1.36-.594-.505 3.852-2.353 3.258-2.857-.594-.505-3.916.875-4.51.371-.594-.505.448-.939-.146-1.442-.594-.505.24-.852-.354-1.357s-1.918.045-2.512-.46c-.594-.505 3.277-2.114 2.683-2.619-.595-.506-1.169-.268-1.763-.772-.595-.506-2.543.303-3.138-.203-.594-.504-.443-.568-1.037-1.073-.594-.505 2.143-1.641 1.549-2.146-.595-.505-4.093.949-4.686.444-.594-.505-2.941.471-3.535-.034-.593-.504 5.528-3.048 4.934-3.552-.594-.505-2.918.462-3.512-.043-.593-.504-.49-.547-1.084-1.051-.593-.505-3.466.69-4.06.185-.594-.505-.463-.559-1.057-1.064-.274-.232.126-.336.536-.376-.533-.166-.39-.743-.705-.264-.379.575-1.592.293-1.971.868-.378.575.406.757.027 1.331-.378.574 3.428 1.46 3.051 2.034-.379.574-1.151.395-1.53.969-.377.573.683.82.305 1.394-.377.573-5.576-.636-5.953-.063-.378.573 3.461 1.466 3.083 2.04-.378.573-1.033.421-1.411.995-.377.573-3.747-.21-4.125.363-.378.575.43.762.052 1.336-.377.574 4.25 1.65 3.873 2.223-.378.573-4.7-.432-5.077.143-.378.572 3.863 1.558 3.486 2.131-.378.574-4.701-.431-5.078.142-.377.573-2.859-.004-3.236.569-.377.573-.044.65-.421 1.223-.377.572 2.805 1.313 2.428 1.886-.378.573-3.192-.081-3.569.492-.377.572 5.66 1.976 5.283 2.548-.377.572-.797.474-1.173 1.047-.377.572-3.412-.134-3.789.438-.378.573-1.025.423-1.403.996-.377.573 3.901 1.568 3.524 2.14-.376.571-4.972-.497-5.348.075-.376.57-2.057.18-2.434.751-.376.571 5.585 1.957 5.209 2.528-.377.573-4.996-.501-5.373.072-.377.573.488.774.111 1.346-.377.574-2.245.139-2.622.712-.377.574 3.956 1.581 3.579 2.154-.377.572-1.651.276-2.028.848-.377.573-4.593-.408-4.971.165-.377.573 2.994 1.357 2.617 1.929-.377.573-2.344.116-2.721.688-.377.574.588.797.211 1.371-.377.572-1.531.303-1.908.876-.377.572 4.352 1.671 3.975 2.244-.377.572-.001.66-.378 1.232-.378.572.431.761.054 1.333-.378.573-6.865-.935-7.242-.362-.377.572 3.539 1.482 3.162 2.055-.376.572-5.081-.522-5.458.05-.377.572.447.764.07 1.335-.376.573 5.458 1.929 5.081 2.501-.377.573-1.658.275-2.034.847-.378.572-1.184.385-1.561.958-.378.572 1.029.899.652 1.473-.377.572-3.534-.163-3.911.41-.376.572 3.017 1.361 2.64 1.933-.377.572-1.82.237-2.197.808-.376.572-.671.504-1.047 1.075-.377.571 1.789 1.075 1.412 1.647-.377.572-5.32-.577-5.696-.006-.377.572 1.267.955.891 1.526-.377.572 3.423 1.456 3.046 2.028-.377.573-5.762-.679-6.139-.107-.201.306-.802.331-1.376.375.104-.179.145-.357-.049-.54-.553-.52-1.998.022-2.551-.498-.555-.521.246-.821-.308-1.343-.553-.519-1.92-.007-2.474-.526-.553-.52-1.087-.32-1.64-.839-.554-.521-.232-.642-.786-1.161-.552-.52 2.614-1.709 2.062-2.228-.553-.519-3.239.49-3.792-.031-.554-.52 1.583-1.322 1.029-1.843-.553-.52-5.294 1.261-5.847.741-.553-.519 3.517-2.048 2.964-2.569-.553-.519-3.481.58-4.034.061-.553-.52-2.361.159-2.915-.361-.552-.519.128-.775-.424-1.295-.553-.519 2.958-1.837 2.405-2.357-.553-.52.785-1.021.232-1.541-.553-.521-2.404.176-2.957-.345-.552-.518 1.741-1.38 1.189-1.898-.552-.519-7.036 1.917-7.588 1.398-.552-.518 4.962-2.591 4.41-3.109-.553-.52-1.774-.061-2.328-.58-.552-.52-3.402.552-3.955.032-.551-.519.093-.761-.458-1.278-.551-.519 2.244-1.569 1.693-2.087-.551-.518-.321-.604-.872-1.122-.551-.518-4.927 1.126-5.478.607-.552-.518-.625-.491-1.177-1.01-.553-.519-.23-.64-.783-1.16-.552-.519 1.35-1.234.797-1.753-.552-.519-.319-.606-.871-1.126-.552-.518-.902-.387-1.454-.907-.552-.518 1.873-1.431 1.321-1.949-.553-.52-2.296.136-2.849-.384-.552-.519-1.113-.309-1.666-.827-.552-.52-1.243-.26-1.795-.778-.552-.519-1.443-.185-1.995-.704-.552-.518 2.016-1.483 1.463-2.002-.552-.52.52-.922-.032-1.442-.553-.518-2.607.253-3.16-.266-.551-.519-2.597.25-3.15-.27-.551-.519 3.919-2.198 3.367-2.717-.552-.518.461-.898-.091-1.417-.552-.518-1.058-.329-1.61-.847-.552-.519-5.439 1.317-5.992.798-.552-.519 4.075-2.256 3.523-2.776-.553-.52-.592-.505-1.145-1.024-.552-.519-4.983 1.146-5.535.627-.552-.519 4.429-2.39 3.878-2.909-.552-.518-2.094.061-2.646-.458-.551-.518-2.663.276-3.215-.243-.551-.518.682-.981.131-1.5-.552-.518-3.811.706-4.362.188-.552-.519 4.221-2.312 3.67-2.83-.553-.519-3.004.402-3.556-.117s1.517-1.296.965-1.815c-.552-.52-.716-.458-1.268-.977-.553-.519-2.902.364-3.453-.155-.552-.518.398-.876-.154-1.393-.551-.519-3.941.754-4.492.236-.551-.518 2.11-1.518 1.559-2.036-.551-.518-.273-.622-.825-1.14-.55-.517 2.453-1.646 1.901-2.164-.55-.518-1.255-.253-1.806-.771-.551-.518-5.803 1.455-6.354.937-.552-.518 1.749-1.383 1.198-1.9-.551-.519-.369-.587-.921-1.106-.552-.518-2.573.241-3.125-.277-.552-.519.076-.755-.476-1.275-.552-.518-.426-.565-.979-1.084-.551-.519 4.302-2.342 3.75-2.861-.552-.518-4.767 1.066-5.318.547-.551-.518.501-.913-.05-1.432-.551-.517-2.418.184-2.969-.334-.551-.517 1.113-1.142.563-1.66-.551-.517 1.898-1.437 1.348-1.955-.551-.517-3.697.664-4.247.147-.551-.517-1.724-.077-2.275-.594-.55-.518-1.039-.333-1.59-.851-.55-.517 2.568-1.689 2.018-2.206-.551-.517 2.032-1.488 1.482-2.006-.551-.517-4.237.868-4.788.351-.55-.519-.434-.563-.985-1.08-.55-.518-.073-.697-.624-1.215-.551-.518.721-.996.17-1.514-.551-.518.566-.938.015-1.457-.552-.518-4.512.97-5.064.452-.552-.519 1.55-1.309.999-1.828-.553-.518-.246-.633-.798-1.152-.551-.519 1.623-1.335 1.072-1.853-.551-.518-5.006 1.156-5.557.637-.551-.517.862-1.048.311-1.565-.551-.518 2.072-1.503 1.521-2.021-.55-.516-4.774 1.07-5.324.553-.55-.518 3.416-2.007 2.865-2.524-.549-.517-.004-.722-.553-1.239-.551-.516-1.269-.247-1.819-.763-.55-.517.349-.855-.2-1.371-.55-.517-.845-.407-1.395-.923s-5.959 1.516-6.509 1c-.55-.517.659-.971.11-1.488-.55-.516.131-.772-.419-1.289-.55-.516 3.569-2.063 3.019-2.58-.55-.516-1.104-.308-1.654-.825-.549-.517-1.541-.143-2.091-.66-.551-.519.339-.853-.213-1.371-.551-.518-2.084.058-2.635-.459-.551-.519 1.471-1.278.92-1.797-.551-.518-2.991.399-3.542-.119-.551-.518 2.14-1.529 1.588-2.047-.551-.518-3.043.418-3.594-.1-.552-.518-4.071.804-4.622.285-.552-.517.198-.799-.354-1.318-.551-.517-1.462-.176-2.013-.694-.552-.519 5.229-2.691 4.677-3.209-.551-.519-1.772-.06-2.324-.578-.551-.519-2.507.216-3.059-.302-.551-.518 2.165-1.538 1.614-2.056-.552-.518-4.027.787-4.578.27-.551-.519-.86-.403-1.412-.92-.551-.518 4.112-2.27 3.561-2.788-.551-.518-3.336.529-3.887.011-.551-.518-1.654-.104-2.205-.622-.551-.517-.948-.368-1.499-.886-.551-.518 2.974-1.842 2.423-2.36-.551-.518-4.246.87-4.797.352-.551-.518-1.373-.209-1.924-.727-.551-.517 3.281-1.958 2.73-2.475-.551-.519-3.789.698-4.34.18-.551-.518.452-.895-.099-1.414-.552-.517-1.08-.319-1.632-.838-.551-.517-.905-.385-1.456-.903-.552-.518.863-1.05.311-1.568-.551-.519-2.197.099-2.749-.419-.551-.518.098-.762-.453-1.28s3.506-2.042 2.955-2.561c-.551-.518-.214-.645-.765-1.162-.551-.519-4.821 1.086-5.372.568-.551-.517 1.451-1.27.9-1.788-.551-.517-.527-.526-1.078-1.044-.55-.518 1.272-1.202.721-1.72s-3.992.775-4.543.257c-.551-.517.91-1.066.359-1.584-.551-.517-1.142-.296-1.692-.813-.551-.518 1.296-1.212.745-1.73" style="fill:#3d0321;fill-opacity:1;fill-rule:nonzero;stroke:none;stroke-width:1.90456" transform="translate(1386.3799 84.9258)"/>
    </g>
  </g>
</svg>
