<svg width="2500" height="1000" viewBox="0 0 4000.832 1600.3328" xmlns="http://www.w3.org/2000/svg">
  <g style="stroke-width:1.90456">
    <path d="M0 0h1034.157l-87.45 97.425-55.231 5.18-57.072-35.227-49.708 26.938-138.078 15.542-55.232 103.615-78.245-11.398-102.177 72.529-69.959-45.589-57.994 1.036-71.8-42.24-69.96 80.577-45.106-4.494L0 321.231Z" style="fill:#52042c;fill-opacity:1;fill-rule:nonzero;stroke:none;stroke-width:1.90456" transform="matrix(1.40583 0 0 -.89284 -1.8239633 1286.7395)"/>
  </g>
  <g style="stroke-width:1.90456">
    <path d="m0 0 29.231-126.434L45.105 4.493Z" style="fill:#4a0428;fill-opacity:1;fill-rule:nonzero;stroke:none;stroke-width:1.90456" transform="matrix(1.40583 0 0 -.89284 133.33984 1051.1227)"/>
  </g>
  <g style="stroke-width:1.90456">
    <path d="m0 0 92.06-133.859-6.289 93.716 29.649-17.64L71.8 42.24Z" style="fill:#4a0428;fill-opacity:1;fill-rule:nonzero;stroke:none;stroke-width:1.90456" transform="matrix(1.40583 0 0 -.89284 295.10195 1119.0538)"/>
  </g>
  <g style="stroke-width:1.90456">
    <path d="m0 0 81.761-122.141v74.456l16.172-11.43L69.959 45.59Z" style="fill:#4a0428;fill-opacity:1;fill-rule:nonzero;stroke:none;stroke-width:1.90456" transform="matrix(1.40583 0 0 -.89284 477.56913 1082.2649)"/>
  </g>
  <g style="stroke-width:1.90456">
    <path d="m0 0 47.985-81.971 17.071-97.024 37.417 44.101-25.814 88.287 1.586 58.004z" style="fill:#4a0428;fill-opacity:1;fill-rule:nonzero;stroke:none;stroke-width:1.90456" transform="matrix(1.40583 0 0 -.89284 719.56408 1106.3178)"/>
  </g>
  <g style="stroke-width:1.90456">
    <path d="m0 0 38.916-70.705v-31.9l-45.822 2.131-50.166 65.245z" style="fill:#4a0428;fill-opacity:1;fill-rule:nonzero;stroke:none;stroke-width:1.90456" transform="matrix(1.40583 0 0 -.89284 1251.4368 1195.1286)"/>
  </g>
  <g style="stroke-width:1.90456">
    <path d="m0 0-45.095 4.374-69.945-78.428-71.785 41.113-57.98-1.009-69.945 44.375-102.156-70.595-78.228 11.094-55.22-100.85-138.047-15.128-49.699-26.22-57.059 34.289-55.219-5.044-87.432-94.826H96.125V55.806Z" style="fill:#52042c;fill-opacity:1;fill-rule:nonzero;stroke:none;stroke-width:1.90456" transform="matrix(1.40583 0 0 -.89284 3869.6465 1048.4841)"/>
  </g>
  <g style="stroke-width:1.90456">
    <path d="m0 0-29.204-122.925L-45.063 4.368Z" style="fill:#4a0428;fill-opacity:1;fill-rule:nonzero;stroke:none;stroke-width:1.90456" transform="matrix(1.40583 0 0 -.89284 3868.7131 1048.738)"/>
  </g>
  <g style="stroke-width:1.90456">
    <path d="m0 0-91.975-130.145 6.284 91.116-29.622-17.151 43.579 97.246z" style="fill:#4a0428;fill-opacity:1;fill-rule:nonzero;stroke:none;stroke-width:1.90456" transform="matrix(1.40583 0 0 -.89284 3707.1007 1114.7831)"/>
  </g>
  <g style="stroke-width:1.90456">
    <path d="m0 0-81.686-118.75v72.389l-16.157-11.114 27.947 101.799z" style="fill:#4a0428;fill-opacity:1;fill-rule:nonzero;stroke:none;stroke-width:1.90456" transform="matrix(1.40583 0 0 -.89284 3524.8029 1079.0161)"/>
  </g>
  <g style="stroke-width:1.90456">
    <path d="m0 0-47.94-79.695-17.055-94.331-37.383 42.877 25.79 85.835-1.584 56.395z" style="fill:#4a0428;fill-opacity:1;fill-rule:nonzero;stroke:none;stroke-width:1.90456" transform="matrix(1.40583 0 0 -.89284 3283.0299 1102.4009)"/>
  </g>
  <g style="stroke-width:1.90456">
    <path d="m0 0-38.88-68.743v-31.016l45.779 2.073L57.02-34.251z" style="fill:#4a0428;fill-opacity:1;fill-rule:nonzero;stroke:none;stroke-width:1.90456" transform="matrix(1.40583 0 0 -.89284 2751.6493 1188.7462)"/>
  </g>
  <path style="fill:#52042c;fill-opacity:1;stroke-width:1.60033" d="m-1.5799132 1280.0007 1489.8581132 1.6912 4.7398 334.8303L1e-8 1613.1401Zm2515.4930132-8.9606 1489.8581 1.6912 4.7398 334.8303-1493.018-3.3821z"/>
</svg>
