<svg width="2500" height="1000" viewBox="0 0 4000.832 1600.3328" xmlns="http://www.w3.org/2000/svg">
  <g style="stroke-width:1.90456">
    <path d="m0 0-26.435 21.047-51.987-56.123v-502.261h2849.268v404.309L2656.252-7.016l-66.578-45.599-62.661 16.369-49.933-46.768-96.929 114.253-87.139-44.1-69.514-88.861-98.888 84.185-29.372-23.386-27.414 10.524-28.394-22.216-72.452 94.707-53.85-51.445-21.539 14.03-41.121-16.369-54.83 57.292-42.101-56.122-11.748 7.015-88.117-83.015-99.867 22.215-86.16-56.122-24.477 8.185-83.221-72.493-151.758 86.523-50.912-25.723-108.679 95.876-29.372-9.354-56.788 58.462L817.535-44.43l-88.164 60.447L640.32-43.26l-79.305 60.798-50.912-38.584-16.645 15.2-117.49-85.353-71.473 50.276-37.205-19.876L172.318 60.8 149.8 40.923l-38.185 38.584Z" style="fill:#db2e3c;fill-opacity:1;fill-rule:nonzero;stroke:none;stroke-width:1.90456" transform="matrix(1.40583 0 0 -.89284 108.42434 929.96485)"/>
  </g>
  <g style="stroke-width:1.90456">
    <path d="m0 0 46.09-7.397 16.302 23.766L72.46 4.486 66.578 45.6Z" style="fill:#cc2330;fill-opacity:1;fill-rule:nonzero;stroke:none;stroke-width:1.90456" transform="matrix(1.40583 0 0 -.89284 3749.0573 976.94165)"/>
  </g>
  <g style="stroke-width:1.90456">
    <path d="m0 0 174.232-159.238-21.434 140.167 18.294-12.236-26.344 94.562 16.831-14.315-4.926 84.02-87.138-44.1z" style="fill:#cc2330;fill-opacity:1;fill-rule:nonzero;stroke:none;stroke-width:1.90456" transform="matrix(1.40583 0 0 -.89284 3234.2858 1020.7955)"/>
  </g>
  <g style="stroke-width:1.90456">
    <path d="m0 0 25.737-35.136 8.766 17.569-6.109 39.783z" style="fill:#cc2330;fill-opacity:1;fill-rule:nonzero;stroke:none;stroke-width:1.90456" transform="matrix(1.40583 0 0 -.89284 2976.5376 974.73569)"/>
  </g>
  <g style="stroke-width:1.90456">
    <path d="m0 0 41.766-29.113L53.85 51.445Z" style="fill:#cc2330;fill-opacity:1;fill-rule:nonzero;stroke:none;stroke-width:1.90456" transform="matrix(1.40583 0 0 -.89284 2798.9793 936.10985)"/>
  </g>
  <g style="stroke-width:1.90456">
    <path d="m0 0 45.607-49.635-4.486 66.004Z" style="fill:#cc2330;fill-opacity:1;fill-rule:nonzero;stroke:none;stroke-width:1.90456" transform="matrix(1.40583 0 0 -.89284 2710.8887 938.19816)"/>
  </g>
  <g style="stroke-width:1.90456">
    <path d="m0 0 41.911-32.098.19 88.22z" style="fill:#cc2330;fill-opacity:1;fill-rule:nonzero;stroke:none;stroke-width:1.90456" transform="matrix(1.40583 0 0 -.89284 2574.6222 937.15358)"/>
  </g>
  <g style="stroke-width:1.90456">
    <path d="m0 0 18.222-151.538H-6.241l52.657-237.024h-161.069l56.862 282.394-30.326 23.153z" style="fill:#cc2330;fill-opacity:1;fill-rule:nonzero;stroke:none;stroke-width:1.90456" transform="matrix(1.40583 0 0 -.89284 2558.1052 930.89048)"/>
  </g>
  <g style="stroke-width:1.90456">
    <path d="m0 0 87.359-34.616-1.2 90.739z" style="fill:#cc2330;fill-opacity:1;fill-rule:nonzero;stroke:none;stroke-width:1.90456" transform="matrix(1.40583 0 0 -.89284 2172.7081 1035.2834)"/>
  </g>
  <g style="stroke-width:1.90456">
    <path d="m0 0 88.579-52.786-5.357 125.277Z" style="fill:#cc2330;fill-opacity:1;fill-rule:nonzero;stroke:none;stroke-width:1.90456" transform="matrix(1.40583 0 0 -.89284 2021.3018 1092.6992)"/>
  </g>
  <g style="stroke-width:1.90456">
    <path d="m0 0 52.725-44.138-1.812 69.861Z" style="fill:#cc2330;fill-opacity:1;fill-rule:nonzero;stroke:none;stroke-width:1.90456" transform="matrix(1.40583 0 0 -.89284 1736.3824 1038.4152)"/>
  </g>
  <g style="stroke-width:1.90456">
    <path d="m0 0 42.684-42.441L29.373 9.354Z" style="fill:#cc2330;fill-opacity:1;fill-rule:nonzero;stroke:none;stroke-width:1.90456" transform="matrix(1.40583 0 0 -.89284 1542.307 961.1643)"/>
  </g>
  <g style="stroke-width:1.90456">
    <path d="M0 0v-160.064l-18.77 5.99 11.111-82.744-28.52-11.114 28.52-162.713-154.531 54.461 94.14 217.464-76.854 73.243z" style="fill:#cc2330;fill-opacity:1;fill-rule:nonzero;stroke:none;stroke-width:1.90456" transform="matrix(1.40583 0 0 -.89284 1462.4748 908.96788)"/>
  </g>
  <g style="stroke-width:1.90456">
    <path d="m0 0 67.856-54.724 7.002 59.029H89.02l.03 54.973z" style="fill:#cc2330;fill-opacity:1;fill-rule:nonzero;stroke:none;stroke-width:1.90456" transform="matrix(1.40583 0 0 -.89284 1009.6325 966.38361)"/>
  </g>
  <g style="stroke-width:1.90456">
    <path d="m0 0 61.677-56.238-7.592 49.172 9.49-6.044-12.662 51.694z" style="fill:#cc2330;fill-opacity:1;fill-rule:nonzero;stroke:none;stroke-width:1.90456" transform="matrix(1.40583 0 0 -.89284 826.56819 946.54925)"/>
  </g>
  <g style="stroke-width:1.90456">
    <path d="m0 0 96.412-68.389v63.931l12.523-8.721-3.131 47.603 10.644-6.356 1.042 57.286z" style="fill:#cc2330;fill-opacity:1;fill-rule:nonzero;stroke:none;stroke-width:1.90456" transform="matrix(1.40583 0 0 -.89284 637.9988 1009.1851)"/>
  </g>
  <g style="stroke-width:1.90456">
    <path d="m0 0 33.549-43.578 3.656 63.455z" style="fill:#cc2330;fill-opacity:1;fill-rule:nonzero;stroke:none;stroke-width:1.90456" transform="matrix(1.40583 0 0 -.89284 485.21595 982.0433)"/>
  </g>
  <g style="stroke-width:1.90456">
    <path d="m0 0 27.479-29.857-4.96 49.734z" style="fill:#cc2330;fill-opacity:1;fill-rule:nonzero;stroke:none;stroke-width:1.90456" transform="matrix(1.40583 0 0 -.89284 320.04579 891.22092)"/>
  </g>
  <g style="stroke-width:1.90456">
    <path d="M0 0v-52.926l60.969-40.268-18.88 72.148 14.564-3.222-14.564 37.363 14.564 2.577-4.665 40.45z" style="fill:#cc2330;fill-opacity:1;fill-rule:nonzero;stroke:none;stroke-width:1.90456" transform="matrix(1.40583 0 0 -.89284 -.79526327 959.07612)"/>
  </g>
  <g style="stroke-width:1.90456">
    <path d="m0 0-8.239-59.617h-20.498l5.933-61.836-21.576 14.167 25.352-60.224-92.588 88.003z" style="fill:#cc2330;fill-opacity:1;fill-rule:nonzero;stroke:none;stroke-width:1.90456" transform="matrix(1.40583 0 0 -.89284 266.36555 856.77144)"/>
  </g>
  <g style="stroke-width:1.90456">
    <path d="m0 0 67.503 20.153" style="fill:#ed5d45;fill-opacity:1;fill-rule:nonzero;stroke:none;stroke-width:1.90456" transform="matrix(1.40583 0 0 -.89284 2288.266 1051.8804)"/>
  </g>
  <path style="fill:#db2e3c;stroke-width:1.60033;fill-opacity:1" d="m0 1402.9629 4003.5001 6.3197v202.2288L0 1595.7123Z"/>
</svg>
