<svg width="9448.8193" height="3779.5276" viewBox="0 0 4000 1600" xmlns="http://www.w3.org/2000/svg">
  <g style="stroke-width:0.505904">
    <path d="m0 0-26.536-31.679-53.878 3.62-49.053-19.008-19.299 19.008-59.507-19.008h-41.386V-346.21H667.29l-84.788 100.012-50.963 33.49-3.216 56.119L360.092-24.98 253.306-99.565h-97.302l-57.791 66.19-54.631 44.742z" style="fill:#7b062f;fill-opacity:1;fill-rule:nonzero;stroke:none;stroke-width:0.505904" transform="matrix(1.4034 0 0 -.88699 352.22997 966.74262)"/>
  </g>
  <g style="stroke-width:0.505904">
    <path d="m0 0 2.928-49.3 48.034 15.81z" style="fill:#6b0228;fill-opacity:1;fill-rule:nonzero;stroke:none;stroke-width:0.505904" transform="matrix(1.4034 0 0 -.88699 1098.1976 1155.4117)"/>
  </g>
  <g style="stroke-width:0.505904">
    <path d="m0 0 48.346-10.068 46.179-83.651 27.75 70.617 12.21 3.406-27.699 94.281z" style="fill:#6b0228;fill-opacity:1;fill-rule:nonzero;stroke:none;stroke-width:0.505904" transform="matrix(1.4034 0 0 -.88699 707.72148 1055.0555)"/>
  </g>
  <g style="stroke-width:0.505904">
    <path d="m0 0-16.284 62.395 48.851-48.938Z" style="fill:#6b0228;fill-opacity:1;fill-rule:nonzero;stroke:none;stroke-width:0.505904" transform="matrix(1.4034 0 0 -.88699 459.06434 1080.2846)"/>
  </g>
  <g style="stroke-width:0.505904">
    <path d="m0 0 54.06-62.51 38.528-101.714 48.858 11.843-58.149 86.12 40.875 5.825-66.805 48.151-8.314 31.293z" style="fill:#6b0228;fill-opacity:1;fill-rule:nonzero;stroke:none;stroke-width:0.505904" transform="matrix(1.4034 0 0 -.88699 170.53487 1008.4906)"/>
  </g>
  <g style="stroke-width:0.505904">
    <path d="M0 0h-41.348L-100.8 18.48-120.081 0l-49.008 18.48-53.828-3.52-26.512 30.801-43.542 11.051-54.581-43.499-57.737-64.354H-502.5l-106.687 72.515-168.077-127.956-3.214-54.561-50.915-32.561-84.71-97.237H0Z" style="fill:#7b062f;fill-opacity:1;fill-rule:nonzero;stroke:none;stroke-width:0.505904" transform="matrix(1.4034 0 0 -.88699 3998.4903 1007.0516)"/>
  </g>
  <g style="stroke-width:0.505904">
    <path d="m0 0-2.926-47.932-47.989 15.37z" style="fill:#6b0228;fill-opacity:1;fill-rule:nonzero;stroke:none;stroke-width:0.505904" transform="matrix(1.4034 0 0 -.88699 2903.1611 1149.8949)"/>
  </g>
  <g style="stroke-width:0.505904">
    <path d="m0 0-48.302-9.789-46.136-81.329-27.725 68.657-12.198 3.312 27.673 91.664z" style="fill:#6b0228;fill-opacity:1;fill-rule:nonzero;stroke:none;stroke-width:0.505904" transform="matrix(1.4034 0 0 -.88699 3293.2771 1052.3244)"/>
  </g>
  <g style="stroke-width:0.505904">
    <path d="m0 0 16.27 60.663-48.807-47.579Z" style="fill:#6b0228;fill-opacity:1;fill-rule:nonzero;stroke:none;stroke-width:0.505904" transform="matrix(1.4034 0 0 -.88699 3541.7041 1076.8536)"/>
  </g>
  <g style="stroke-width:0.505904">
    <path d="m0 0-54.01-60.774-38.493-98.892-48.812 11.515 58.095 83.729-40.838 5.663 66.744 46.815 8.306 30.424z" style="fill:#6b0228;fill-opacity:1;fill-rule:nonzero;stroke:none;stroke-width:0.505904" transform="matrix(1.4034 0 0 -.88699 3829.9682 1007.0516)"/>
  </g>
</svg>
