<svg width="2500" height="1000" viewBox="0 0 4000.832 1600.3328" xmlns="http://www.w3.org/2000/svg">
  <g style="stroke-width:1.90456">
    <path d="m0 0-27.848 14.781L-184.101-73.9-757.786-1.117l-107.817 59.769-85.776-71.434-27.088 25.608-142.209-97.043-182.839 86.261-196.384-86.261L-1628.563.697l-69.976-57.958-215.828 115.913v-513.139H934.902v496.98l-57.714-55.275-29.395 25.715-160.894-64.662-41.772 18.079-111.388-50.567-68.072 50.567h-35.582L389.862 0 270.736-70.205l-131.5 83.138-29.394-11.085-44.866 56.804Z" style="fill:#f9604e;fill-opacity:1;fill-rule:nonzero;stroke:none;stroke-width:1.90456" transform="matrix(1.40583 0 0 -.89284 2690.4719 869.82322)"/>
  </g>
  <g style="stroke-width:1.90456">
    <path d="m0 0 3.341-153.588-103.029 76.794Z" style="fill:#f25341;fill-opacity:1;fill-rule:nonzero;stroke:none;stroke-width:1.90456" transform="matrix(1.40583 0 0 -.89284 400.99413 869.20145)"/>
  </g>
  <g style="stroke-width:1.90456">
    <path d="m0 0 109.586-64.467 59.59 78.652h13.144l3.506 39.603 14.021-9.419-3.464 41.892z" style="fill:#f25341;fill-opacity:1;fill-rule:nonzero;stroke:none;stroke-width:1.90456" transform="matrix(1.40583 0 0 -.89284 581.87478 945.01551)"/>
  </g>
  <g style="stroke-width:1.90456">
    <path d="m0 0 7.952-73.948H-4.202L7.952-189.482-18.3-154.647l-67.477 83.212z" style="fill:#f25341;fill-opacity:1;fill-rule:nonzero;stroke:none;stroke-width:1.90456" transform="matrix(1.40583 0 0 -.89284 1473.5847 817.45587)"/>
  </g>
  <g style="stroke-width:1.90456">
    <path d="m0 0-4.612-73.694h-20.905l5.72-92.024-105.382 81.28z" style="fill:#f25341;fill-opacity:1;fill-rule:nonzero;stroke:none;stroke-width:1.90456" transform="matrix(1.40583 0 0 -.89284 1314.9171 858.37144)"/>
  </g>
  <g style="stroke-width:1.90456">
    <path d="m0 0 50.193-21.346 25.001-66.571 65.882 39.943-7.77 49.626L146.82-9.241v45.188l14.528-7.262-.453 35.977z" style="fill:#f25341;fill-opacity:1;fill-rule:nonzero;stroke:none;stroke-width:1.90456" transform="matrix(1.40583 0 0 -.89284 3656.1327 916.00946)"/>
  </g>
  <g style="stroke-width:1.90456">
    <path d="m0 0 4.271-47.239h-14.309l9.539-35.212-9.539 2.59 16.476-59.55-116.64 59.031 21.68 41.426z" style="fill:#f25341;fill-opacity:1;fill-rule:nonzero;stroke:none;stroke-width:1.90456" transform="matrix(1.40583 0 0 -.89284 3597.4093 899.86777)"/>
  </g>
  <g style="stroke-width:1.90456">
    <path d="m0 0 17.019-14.17 11.274 3.107 6.07-14.757L35.582 0Z" style="fill:#f25341;fill-opacity:1;fill-rule:nonzero;stroke:none;stroke-width:1.90456" transform="matrix(1.40583 0 0 -.89284 3295.0973 899.86777)"/>
  </g>
  <g style="stroke-width:1.90456">
    <path d="m0 0-2.193-51.635h-14.66l8.426-59.521-12.614 7.503 15.916-82.03-215.939 53.589z" style="fill:#f25341;fill-opacity:1;fill-rule:nonzero;stroke:none;stroke-width:1.90456" transform="matrix(1.40583 0 0 -.89284 3238.5498 869.82316)"/>
  </g>
  <g style="stroke-width:1.90456">
    <path d="m0 0 35.241-49.777-5.846 60.862Z" style="fill:#f25341;fill-opacity:1;fill-rule:nonzero;stroke:none;stroke-width:1.90456" transform="matrix(1.40583 0 0 -.89284 2844.891 868.17344)"/>
  </g>
  <g style="stroke-width:1.90456">
    <path d="m0 0-33.012-45.973-17.141-2.589-9.072-79.741-85.875 45.498z" style="fill:#f25341;fill-opacity:1;fill-rule:nonzero;stroke:none;stroke-width:1.90456" transform="matrix(1.40583 0 0 -.89284 2651.3236 856.62673)"/>
  </g>
  <g style="stroke-width:1.90456">
    <path d="m0 0 15.598-82.201-20.322 14.933 20.322-117.6-40.287 101.766-40.288 24.45z" style="fill:#f25341;fill-opacity:1;fill-rule:nonzero;stroke:none;stroke-width:1.90456" transform="matrix(1.40583 0 0 -.89284 2781.8183 817.45587)"/>
  </g>
  <g style="stroke-width:1.90456">
    <path d="m0 0 251.665 162.754 76.85 11.162 106.966 95.495L582.95 119.348l31.155 14.881L839.462-34.436 410.588-220.465z" style="fill:#ff745d;fill-opacity:1;fill-rule:nonzero;stroke:none;stroke-width:1.90456" transform="matrix(1.40583 0 0 -.89284 1424.7769 946.01926)"/>
  </g>
  <g style="stroke-width:1.90456">
    <path d="m0 0-109.692 109.401 42.189-129.554" style="fill:#ed5d45;fill-opacity:1;fill-rule:nonzero;stroke:none;stroke-width:1.90456" transform="matrix(1.40583 0 0 -.89284 2383.1637 1033.8866)"/>
  </g>
  <g style="stroke-width:1.90456">
    <path d="m0 0-106.967-95.495-76.85-11.161-251.664-162.755 358.977-206.433 31.409 237.922 73.597-52.983L-10.75-92.458l31.893-23.438z" style="fill:#ed5d45;fill-opacity:1;fill-rule:nonzero;stroke:none;stroke-width:1.90456" transform="matrix(1.40583 0 0 -.89284 2036.9882 705.47754)"/>
  </g>
  <g style="stroke-width:1.90456">
    <path d="m0 0 36.432-35.309-5.277 50.191Z" style="fill:#ed5d45;fill-opacity:1;fill-rule:nonzero;stroke:none;stroke-width:1.90456" transform="matrix(1.40583 0 0 -.89284 2244.3039 839.46035)"/>
  </g>
  <path d="m2685.9741 1195.1721-39.1494-13.1971-219.6646 79.1782-806.5016-64.9838-151.572-53.3644-120.5862 63.7794-38.081-22.8639-199.9212 86.6442-257.03989-77.0176-276.0819 77.0176-180.8792-75.8149-98.3741 51.7474L-5.2936921 1142.805v458.1529H4000.2841v-443.7254l-81.1359 49.3519-41.3242-22.9594-226.1891 57.733-58.7242-16.1417-156.5922 45.1484-95.6974-45.1484h-50.0221l-56.5466-30.0442-167.4704 62.6821-184.8662-74.2292-41.3229 9.8971-63.0738-50.7171z" style="fill:#f9604e;fill-opacity:1;fill-rule:nonzero;stroke:none;stroke-width:2.13377"/>
</svg>
